<?xml version="1.0" encoding="utf-8"?>
<!-- Generator: Adobe Illustrator 27.5.0, SVG Export Plug-In . SVG Version: 6.00 Build 0)  -->
<svg version="1.1" xmlns="http://www.w3.org/2000/svg" xmlns:xlink="http://www.w3.org/1999/xlink" x="0px" y="0px"
	 viewBox="0 0 500 500" style="enable-background:new 0 0 500 500;" xml:space="preserve">
<g id="BACKGROUND">
	<rect style="fill:#FFFFFF;" width="500" height="500"/>
	<path style="fill:#EEF5FF;" d="M151.968,53.499c-34.271-2.309-69.755,2.439-99.867,18.966
		c-9.794,5.376-19.128,12.144-25.366,21.412c-10.497,15.594-10.773,35.67-10.683,54.467c0.109,22.648,1.212,47.814,17.206,63.85
		c6.567,6.584,15.025,10.879,23.33,15.063c20.972,10.568,41.943,21.135,62.915,31.703c5.253,2.647,10.723,5.477,14.104,10.291
		c4.053,5.77,4.363,13.342,3.779,20.37c-1.187,14.3-5.497,28.333-12.54,40.835c-10.966,19.466-28.23,34.905-38.52,54.737
		c-10.29,19.832-10.951,48.099,7.407,60.834c6.51,4.516,14.462,6.386,22.267,7.756c19.064,3.346,38.554,4.259,57.847,2.708
		c23.867-1.918,49.403-8.853,63.766-28.011c16.392-21.863,13.213-51.964,16.289-79.116c1.184-10.452,3.639-21.275,10.5-29.248
		c10.936-12.707,30.575-14.695,46.447-9.296c15.872,5.399,28.905,16.725,41.596,27.68c12.691,10.955,25.975,22.074,42.028,26.909
		c21.881,6.589,47.251-0.361,62.718-17.183c15.199-16.529,20.111-39.796,24.098-61.894c9.75-54.042,16.715-113.274-10.691-160.861
		c-9.114-15.826-23.485-30.492-41.656-32.316c-17.599-1.766-33.993,8.848-47.251,20.56c-12.566,11.101-33.933,35.113-52.24,25.925
		c-17.183-8.624-32.583-31.227-49.476-42.421C241.984,72.042,197.485,56.565,151.968,53.499z"/>
	<g>
		<g>
			<path style="fill:#4640CC;" d="M113.037,162.493l-0.918-0.396c0.792-1.837,1.6-3.67,2.422-5.498l0.912,0.411
				C114.632,158.833,113.827,160.661,113.037,162.493z"/>
		</g>
		<g>
			<path style="fill:#4640CC;" d="M120.425,146.463l-0.896-0.443c1.771-3.583,3.59-7.073,5.407-10.376l0.876,0.482
				C124.002,139.415,122.189,142.893,120.425,146.463z M131.679,126.06l-0.851-0.526c2.093-3.381,4.263-6.669,6.449-9.771
				l0.817,0.576C135.92,119.425,133.762,122.695,131.679,126.06z M332.31,119.104c-2.364-3.123-4.824-6.173-7.311-9.064l0.758-0.652
				c2.501,2.907,4.974,5.973,7.351,9.113L332.31,119.104z M145.113,107.051l-0.776-0.63c1.779-2.193,3.619-4.342,5.469-6.389
				c0.738-0.816,1.486-1.625,2.245-2.425l0.726,0.688c-0.753,0.795-1.496,1.598-2.229,2.408
				C148.71,102.736,146.881,104.872,145.113,107.051z M317.114,101.473c-2.744-2.785-5.593-5.472-8.465-7.987l0.658-0.752
				c2.892,2.531,5.758,5.235,8.52,8.037L317.114,101.473z M161.124,90.193l-0.665-0.747c2.941-2.62,5.998-5.11,9.088-7.4
				l0.596,0.804C167.077,85.122,164.042,87.592,161.124,90.193z M299.602,86.173c-3.135-2.33-6.371-4.53-9.619-6.54l0.525-0.851
				c3.273,2.024,6.533,4.24,9.69,6.587L299.602,86.173z M179.804,76.382l-0.515-0.857c3.388-2.034,6.872-3.885,10.355-5.502
				l0.421,0.907C186.614,72.532,183.161,74.367,179.804,76.382z M279.82,73.981c-3.471-1.72-7.055-3.288-10.652-4.658l0.355-0.935
				c3.628,1.382,7.242,2.962,10.74,4.697L279.82,73.981z M200.859,66.645l-0.313-0.949c3.55-1.174,7.167-2.14,10.749-2.872
				l0.594-0.119l0.194,0.98l-0.589,0.118C207.951,64.527,204.373,65.483,200.859,66.645z M258.113,65.728
				c-3.761-1.018-7.582-1.844-11.358-2.453l0.159-0.987c3.81,0.615,7.666,1.448,11.461,2.476L258.113,65.728z M223.591,62.165
				l-0.069-0.998c3.837-0.265,7.796-0.304,11.729-0.11l-0.049,0.999C231.307,61.864,227.388,61.901,223.591,62.165z"/>
		</g>
		<g>
			<path style="fill:#4640CC;" d="M342.343,133.646c-1.076-1.709-2.172-3.399-3.259-5.021l0.832-0.557
				c1.091,1.631,2.192,3.329,3.272,5.046L342.343,133.646z"/>
		</g>
	</g>
	<g>
		<path style="fill:#4640CC;" d="M398.047,361.697l-0.582-0.814l9.762-6.979l0.582,0.815L398.047,361.697z M417.57,347.739
			l-0.582-0.814l9.762-6.979l0.582,0.814L417.57,347.739z M437.095,333.782l-0.582-0.814l4.776-3.413
			c1.657-1.185,3.318-2.374,4.967-3.583l0.592,0.807c-1.652,1.211-3.317,2.402-4.977,3.589L437.095,333.782z M456.29,319.31
			l-0.66-0.752c3.273-2.872,5.98-5.666,8.277-8.543l0.781,0.623C462.354,313.561,459.607,316.398,456.29,319.31z M471.055,300.361
			l-0.906-0.424c1.663-3.559,2.937-7.342,3.784-11.244l0.977,0.213C474.046,292.881,472.749,296.735,471.055,300.361z
			 M475.172,276.891c-0.02-4.004-0.485-7.967-1.385-11.779l0.973-0.23c0.917,3.887,1.392,7.926,1.412,12.006L475.172,276.891z
			 M469.728,253.969c-1.851-3.748-4.067-7.322-5.991-10.326l0.842-0.539c1.938,3.026,4.173,6.63,6.046,10.421L469.728,253.969z
			 M457.26,233.526c-2.457-4.037-4.221-7.44-5.55-10.713l0.926-0.376c1.309,3.221,3.05,6.58,5.478,10.569L457.26,233.526z
			 M448.57,211.141c-0.529-3.548-0.796-7.484-0.814-12.034l1-0.004c0.018,4.501,0.281,8.39,0.803,11.89L448.57,211.141z
			 M449.086,187.132l-0.998-0.045l0.031-0.701c0.166-3.717,0.338-7.56,0.355-11.272l1,0.005c-0.018,3.732-0.19,7.586-0.356,11.312
			L449.086,187.132z M447.798,163.215c-0.593-4.274-1.589-8.014-3.045-11.432l0.92-0.392c1.491,3.5,2.511,7.322,3.115,11.686
			L447.798,163.215z M438.404,141.866c-2.45-2.711-5.402-5.224-9.024-7.682l0.561-0.827c3.69,2.503,6.701,5.067,9.206,7.838
			L438.404,141.866z M419.058,128.208c-3.534-1.78-7.212-3.397-10.932-4.807l0.353-0.936c3.753,1.422,7.463,3.054,11.027,4.849
			L419.058,128.208z M396.753,119.752c-3.844-1.017-7.776-1.841-11.689-2.451l0.154-0.988c3.946,0.615,7.913,1.447,11.791,2.472
			L396.753,119.752z M373.17,114.746c-0.061-0.101-0.116-0.207-0.163-0.32c-0.074-0.175-0.112-0.365-0.112-0.558
			c0-1.013,1.083-1.881,1.97-1.881c0.582,0,1.017,0.362,1.133,0.946l-0.98,0.196c-0.027-0.136-0.066-0.142-0.152-0.142
			c-0.392,0-0.97,0.464-0.97,0.881c0,0.059,0.012,0.116,0.036,0.173c0.027,0.067,0.059,0.127,0.093,0.182L373.17,114.746z"/>
	</g>
	<g>
		<path style="fill:#4640CC;" d="M233.384,440.604c-2.278-0.235-4.54-0.628-6.721-1.165c-1.696-0.419-3.401-0.927-5.067-1.509
			l0.329-0.943c1.637,0.571,3.312,1.069,4.978,1.482c2.136,0.526,4.351,0.91,6.583,1.142L233.384,440.604z M245.474,440.401
			l-0.136-0.99c3.993-0.546,7.846-1.565,11.452-3.03l0.377,0.926C253.483,438.804,249.549,439.845,245.474,440.401z
			 M210.651,432.828c-3.367-1.984-6.675-4.34-9.833-7.002l0.645-0.764c3.114,2.625,6.377,4.948,9.696,6.904L210.651,432.828z
			 M267.636,431.237l-0.623-0.783c2.711-2.157,5.071-4.642,7.016-7.384c0.313-0.439,0.614-0.887,0.909-1.338l0.838,0.547
			c-0.303,0.463-0.612,0.92-0.931,1.369C272.846,426.468,270.42,429.021,267.636,431.237z M192.192,417.393
			c-2.624-2.952-5.116-6.151-7.409-9.511l0.826-0.564c2.269,3.324,4.735,6.491,7.33,9.411L192.192,417.393z M282.09,412.105
			l-0.81-0.586c1.468-2.026,2.962-3.626,4.569-4.889c1.43-1.122,3.048-2.052,4.809-2.764l0.375,0.928
			c-1.675,0.676-3.211,1.559-4.566,2.623C284.934,408.622,283.502,410.155,282.09,412.105z M336.537,409.635
			c-0.716,0-1.444-0.024-2.164-0.071c-2.578-0.169-5.27-0.594-8.469-1.339l0.227-0.975c3.145,0.732,5.785,1.15,8.308,1.315
			c1.151,0.075,2.307,0.088,3.446,0.041l0.041,1C337.464,409.625,337.001,409.635,336.537,409.635z M349.75,407.005l-0.375-0.928
			c3.599-1.451,7.018-3.475,10.161-6.017l0.629,0.777C356.944,403.441,353.439,405.517,349.75,407.005z M314.301,405.108
			c-1.594-0.421-3.009-0.761-4.323-1.038c-2.549-0.54-5.03-0.868-7.374-0.975l0.045-0.998c2.398,0.108,4.934,0.443,7.536,0.994
			c1.331,0.281,2.761,0.624,4.372,1.05L314.301,405.108z M368.435,392.002l-0.818-0.576c2.327-3.305,4.123-6.85,5.338-10.536
			l0.949,0.313C372.658,384.982,370.818,388.616,368.435,392.002z M374.737,369.257c-0.028-1.268-0.132-2.543-0.308-3.788
			l0.99-0.141c0.182,1.284,0.288,2.599,0.317,3.907L374.737,369.257z"/>
	</g>
	<g>
		<path style="fill:#4640CC;" d="M139.327,391.654c-3.453-1.436-7.28-2.596-11.377-3.447l0.203-0.979
			c4.159,0.863,8.047,2.042,11.558,3.502L139.327,391.654z M80.189,386.945l-0.01-1c3.985-0.04,8.05-0.19,11.981-0.337l0.037,1
			C88.261,386.754,84.189,386.905,80.189,386.945z M68.156,386.631c-4.213-0.304-8.031-0.819-11.674-1.577l-0.275-0.058l0.21-0.978
			l0.268,0.057c3.6,0.749,7.375,1.259,11.543,1.559L68.156,386.631z M116.13,386.602c-3.151-0.234-6.433-0.348-10.033-0.348
			c-0.61,0-1.218,0.004-1.826,0.01l-0.097-0.499l0.077-0.501c4.297-0.04,8.241,0.064,11.954,0.34L116.13,386.602z M104.174,385.765
			v-0.5V385.765z M44.702,381.308c-3.826-1.673-7.349-3.706-10.472-6.043l0.6-0.801c3.061,2.291,6.517,4.286,10.272,5.928
			L44.702,381.308z M25.656,366.725c-2.354-3.206-4.09-6.685-5.162-10.339c-0.053-0.181-0.104-0.36-0.153-0.541l0.964-0.266
			l0.149,0.525c1.039,3.542,2.724,6.916,5.008,10.028L25.656,366.725z M20.052,343.837l-1-0.027
			c0.068-2.397,0.292-4.936,0.684-7.763c0.204-1.467,0.44-2.89,0.7-4.229l0.981,0.191c-0.257,1.321-0.49,2.726-0.691,4.174
			C20.339,338.975,20.119,341.478,20.052,343.837z M24.914,320.682l-0.909-0.416c1.478-3.223,3.318-6.051,5.469-8.405
			c0.477-0.522,0.983-1.027,1.505-1.505l0.675,0.738c-0.5,0.457-0.985,0.942-1.442,1.441
			C28.131,314.814,26.349,317.555,24.914,320.682z M53.294,306.645c-3.353-1.621-7.329-1.976-11.387-1.023l-0.229-0.973
			c4.282-1.007,8.491-0.626,12.051,1.096L53.294,306.645z"/>
	</g>
</g>
<g id="OBJECT">
	<g>
		<path style="fill:#C7DBFB;" d="M338.01,378.24l-2.73,7.546l-18.751,3.431l-2.079-11.364l2.273-0.416l-1.663-9.091l-2.273,0.416
			l-1.975-10.796c-0.172-0.941,0.451-1.844,1.393-2.017l19.319-3.535c0.941-0.172,1.844,0.451,2.017,1.393L338.01,378.24z"/>
		<polygon style="fill:#FDB62F;" points="322.779,388.074 326.189,387.45 329.598,386.826 333.007,386.202 331.76,379.384 
			328.35,380.008 324.941,380.631 321.532,381.255 318.123,381.879 319.37,388.697 		"/>
		
			<rect x="314.015" y="373.062" transform="matrix(0.9837 -0.18 0.18 0.9837 -62.4172 62.8593)" style="fill:#DADDDF;" width="2.311" height="4.621"/>
		
			<rect x="328.397" y="379.951" transform="matrix(-0.9837 0.18 -0.18 -0.9837 721.6042 701.3387)" style="fill:#DADDDF;" width="1.155" height="6.932"/>
		
			<rect x="324.987" y="380.575" transform="matrix(-0.9837 0.18 -0.18 -0.9837 714.9268 703.2225)" style="fill:#DADDDF;" width="1.155" height="6.932"/>
		
			<rect x="321.578" y="381.199" transform="matrix(-0.9837 0.18 -0.18 -0.9837 708.2758 705.0739)" style="fill:#DADDDF;" width="1.155" height="6.932"/>
		
			<rect x="318.169" y="381.822" transform="matrix(-0.9837 0.1799 -0.1799 -0.9837 701.6202 706.9307)" style="fill:#DADDDF;" width="1.155" height="6.932"/>
		
			<rect x="331.806" y="379.327" transform="matrix(-0.9837 0.1799 -0.1799 -0.9837 728.2224 699.528)" style="fill:#DADDDF;" width="1.155" height="6.932"/>
	</g>
	<g>
		<path style="fill:#3CA3F7;" d="M457.4,268.37c0.109-0.325,0.206-0.652,0.306-0.977c0.053-0.172,0.108-0.343,0.157-0.516
			c4.958-17.143-3.907-35.612-20.85-42.237c-16.456-6.435-34.892,0.513-43.255,15.545c-0.021,0.038-0.042,0.077-0.063,0.116
			c-0.219,0.397-0.434,0.797-0.64,1.207c-0.096,0.191-0.185,0.386-0.278,0.578c-0.136,0.282-0.273,0.562-0.401,0.85
			c-0.227,0.504-0.442,1.013-0.643,1.528c-0.201,0.514-0.388,1.033-0.563,1.557c-0.101,0.299-0.19,0.598-0.282,0.896
			c-0.063,0.204-0.128,0.407-0.186,0.611c-0.126,0.437-0.238,0.873-0.346,1.31c-0.012,0.047-0.024,0.092-0.036,0.138
			c-4.055,16.719,4.778,34.333,21.236,40.768c16.944,6.626,35.988-0.931,43.973-16.894c0.078-0.154,0.15-0.31,0.226-0.466
			c0.15-0.312,0.303-0.624,0.446-0.942c0.224-0.5,0.438-1.006,0.639-1.519C457.039,269.407,457.224,268.891,457.4,268.37z"/>
		<g>
			<path style="fill:#FFFFFF;" d="M445.622,280.863c-0.198,0.178-0.396,0.356-0.598,0.528c-0.185,0.157-0.371,0.309-0.56,0.462
				c-0.204,0.167-0.41,0.335-0.619,0.496c-0.19,0.148-0.386,0.291-0.579,0.435c-0.213,0.156-0.425,0.313-0.641,0.465
				c-0.199,0.139-0.399,0.273-0.6,0.407c-0.218,0.145-0.438,0.291-0.659,0.431c-0.205,0.13-0.412,0.255-0.619,0.379
				c-0.224,0.136-0.45,0.269-0.677,0.398c-0.21,0.119-0.422,0.236-0.632,0.349c-0.231,0.125-0.463,0.248-0.698,0.366
				c-0.215,0.11-0.43,0.214-0.646,0.32c-0.239,0.114-0.477,0.225-0.716,0.334c-0.219,0.099-0.438,0.193-0.658,0.287
				c-0.243,0.104-0.487,0.203-0.733,0.301c-0.222,0.087-0.444,0.173-0.668,0.255c-0.248,0.093-0.499,0.181-0.751,0.266
				c-0.224,0.078-0.449,0.152-0.676,0.224c-0.254,0.081-0.511,0.157-0.768,0.231c-0.226,0.067-0.453,0.131-0.68,0.191
				c-0.261,0.069-0.523,0.134-0.785,0.197c-0.228,0.055-0.457,0.109-0.685,0.158c-0.265,0.059-0.532,0.111-0.799,0.161
				c-0.229,0.044-0.457,0.086-0.687,0.125c-0.271,0.045-0.543,0.085-0.815,0.124c-0.23,0.032-0.459,0.064-0.687,0.092
				c-0.277,0.032-0.553,0.059-0.831,0.084c-0.228,0.021-0.456,0.043-0.685,0.059c-0.282,0.02-0.564,0.033-0.847,0.044
				c-0.227,0.011-0.452,0.022-0.679,0.027c-0.288,0.006-0.575,0.004-0.862,0.003c-0.224-0.002-0.448-0.001-0.672-0.007
				c-0.053-0.002-0.105-0.004-0.158-0.007c4.994-2.181,9.977-6.535,14.146-12.44l9.009,3.523c-0.083,0.08-0.163,0.163-0.247,0.242
				C445.983,280.54,445.802,280.702,445.622,280.863z"/>
			<path style="fill:#FFFFFF;" d="M445.756,233.636c0.212,0.195,0.425,0.387,0.631,0.587c0.164,0.156,0.321,0.319,0.48,0.48
				c0.2,0.201,0.398,0.401,0.592,0.607c0.158,0.167,0.311,0.337,0.464,0.508c0.187,0.206,0.372,0.413,0.553,0.625
				c0.15,0.174,0.295,0.354,0.443,0.533c0.174,0.214,0.347,0.427,0.515,0.644c0.143,0.184,0.282,0.37,0.42,0.558
				c0.162,0.218,0.323,0.437,0.478,0.66c0.135,0.191,0.267,0.385,0.397,0.581c0.151,0.224,0.3,0.448,0.444,0.676
				c0.126,0.2,0.249,0.4,0.37,0.602c0.138,0.228,0.275,0.46,0.407,0.691c0.118,0.204,0.232,0.413,0.345,0.622
				c0.127,0.234,0.252,0.47,0.371,0.706c0.109,0.212,0.214,0.426,0.318,0.64c0.115,0.239,0.227,0.479,0.335,0.719
				c0.099,0.219,0.195,0.437,0.289,0.658c0.102,0.242,0.202,0.486,0.3,0.731c0.087,0.224,0.174,0.446,0.258,0.673
				c0.092,0.246,0.179,0.494,0.264,0.743c0.078,0.226,0.154,0.456,0.227,0.687c0.08,0.249,0.155,0.5,0.228,0.752
				c0.067,0.232,0.135,0.464,0.198,0.699c0.067,0.253,0.13,0.508,0.191,0.764c0.057,0.234,0.113,0.468,0.165,0.705
				c0.055,0.258,0.105,0.517,0.156,0.776c0.044,0.237,0.09,0.475,0.13,0.713c0.044,0.261,0.081,0.524,0.118,0.785
				c0.035,0.24,0.068,0.478,0.098,0.718c0.031,0.263,0.055,0.529,0.081,0.794c0.023,0.24,0.046,0.481,0.063,0.724
				c0.008,0.112,0.011,0.224,0.017,0.337l-9.007-3.522c0.942-7.162,0.232-13.74-1.957-18.728c0.04,0.034,0.081,0.066,0.121,0.102
				C445.426,233.332,445.59,233.486,445.756,233.636z"/>
			<path style="fill:#FFFFFF;" d="M440.85,263.669c-1.304,3.335-2.87,6.417-4.61,9.19l-14.253-5.573l7.459-19.075l14.253,5.573
				C443.096,257.002,442.155,260.332,440.85,263.669z"/>
			<path style="fill:#FFFFFF;" d="M434.484,275.47c-6.135,8.507-13.916,13.285-20.333,11.852l6.716-17.176L434.484,275.47z"/>
			<path style="fill:#FFFFFF;" d="M430.565,245.348l6.714-17.169c5.685,3.298,8.162,12.085,6.901,22.493L430.565,245.348z"/>
			<path style="fill:#FFFFFF;" d="M453.415,270.136c-0.099,0.221-0.203,0.44-0.307,0.66c-0.087,0.185-0.176,0.368-0.265,0.551
				c-0.161,0.32-0.324,0.641-0.496,0.958c-0.007,0.013-0.014,0.026-0.021,0.038c-1.031,1.892-2.262,3.685-3.685,5.366l-9.51-3.719
				c1.733-2.802,3.284-5.885,4.581-9.202c1.297-3.318,2.251-6.639,2.878-9.873l9.51,3.719c-0.093,2.192-0.405,4.341-0.929,6.426
				c-0.006,0.025-0.012,0.051-0.019,0.077c-0.087,0.342-0.182,0.682-0.281,1.022c-0.059,0.199-0.12,0.398-0.183,0.598
				c-0.072,0.228-0.142,0.457-0.219,0.684c-0.155,0.455-0.316,0.91-0.493,1.362C453.799,269.253,453.609,269.696,453.415,270.136z"
				/>
		</g>
		<g>
			<path style="fill:#FFFFFF;" d="M393.382,249.392c0.017-0.066,0.033-0.132,0.05-0.198c0.081-0.316,0.169-0.63,0.26-0.944
				c0.064-0.217,0.13-0.435,0.2-0.652c0.069-0.217,0.135-0.432,0.207-0.646c0.155-0.458,0.318-0.915,0.496-1.369
				s0.368-0.9,0.565-1.343c0.093-0.206,0.189-0.41,0.285-0.612c0.098-0.209,0.198-0.417,0.299-0.623
				c0.146-0.29,0.295-0.582,0.451-0.869c0.032-0.061,0.065-0.12,0.098-0.18c1.022-1.867,2.237-3.634,3.635-5.287l9.508,3.718
				c-1.734,2.802-3.287,5.888-4.585,9.206c-1.297,3.316-2.249,6.634-2.876,9.868l-9.512-3.72
				C392.559,253.575,392.869,251.453,393.382,249.392z"/>
			<path style="fill:#FFFFFF;" d="M407.712,250.711c1.305-3.337,2.873-6.421,4.614-9.195l14.258,5.576l-7.459,19.075l-14.259-5.576
				C405.469,257.372,406.408,254.046,407.712,250.711z"/>
			<path style="fill:#FFFFFF;" d="M434.417,227.06l-6.714,17.169l-13.621-5.326C420.218,230.4,428,225.625,434.417,227.06z"/>
			<path style="fill:#FFFFFF;" d="M418.007,269.027l-6.716,17.176c-5.69-3.3-8.169-12.09-6.906-22.503L418.007,269.027z"/>
			<path style="fill:#FFFFFF;" d="M425.31,225.334c-4.991,2.178-9.974,6.531-14.14,12.43l-9-3.519
				C408.332,228.323,416.702,225.064,425.31,225.334z"/>
			<path style="fill:#FFFFFF;" d="M392.469,259.041l9.002,3.52c-0.943,7.165-0.234,13.745,1.956,18.734
				C396.918,275.652,392.979,267.577,392.469,259.041z"/>
		</g>
	</g>
	<path style="fill:#31C9AC;" d="M180.528,119.337c-15.232,0-27.576,12.341-27.576,27.573c0,15.235,27.576,38.741,27.576,38.741
		s27.57-23.506,27.57-38.741C208.098,131.678,195.757,119.337,180.528,119.337z M180.528,160.598
		c-7.561,0-13.689-6.129-13.689-13.688c0-7.557,6.129-13.684,13.689-13.684c7.561,0,13.686,6.127,13.686,13.684
		C194.214,154.469,188.089,160.598,180.528,160.598z"/>
	<path style="fill:#31C9AC;" d="M117.74,225.912h-4.481c-0.324-1.578-0.756-3.106-1.299-4.588l3.744-2.161
		c0.896-0.522,1.204-1.667,0.689-2.572l-3.755-6.499c-0.525-0.9-1.674-1.204-2.566-0.688l-3.892,2.248
		c-1.049-1.194-2.188-2.305-3.409-3.322l2.166-3.751c0.518-0.906,0.209-2.049-0.689-2.568l-6.501-3.758
		c-0.894-0.511-2.04-0.206-2.564,0.692l-2.243,3.89c-1.493-0.512-3.037-0.898-4.62-1.171v-4.336c0-1.035-0.837-1.88-1.878-1.88
		h-7.501c-1.049,0-1.889,0.844-1.889,1.88v4.483c-1.567,0.317-3.1,0.75-4.582,1.294l-2.157-3.744
		c-0.523-0.903-1.67-1.206-2.578-0.688l-6.502,3.76c-0.893,0.511-1.199,1.664-0.682,2.56l2.247,3.896
		c-1.19,1.046-2.308,2.182-3.32,3.402l-3.748-2.165c-0.908-0.517-2.051-0.202-2.57,0.693l-3.762,6.501
		c-0.515,0.897-0.208,2.046,0.692,2.564l3.886,2.244c-0.503,1.492-0.896,3.034-1.164,4.616h-4.334c-1.042,0-1.882,0.845-1.882,1.879
		v7.506c0,1.038,0.84,1.879,1.882,1.879h4.485c0.313,1.577,0.747,3.113,1.292,4.59l-3.749,2.162c-0.9,0.519-1.199,1.667-0.686,2.563
		l3.752,6.504c0.516,0.894,1.669,1.205,2.568,0.688l3.894-2.245c1.051,1.193,2.188,2.312,3.407,3.324l-2.166,3.754
		c-0.519,0.897-0.213,2.048,0.684,2.563l6.509,3.754c0.898,0.517,2.046,0.211,2.559-0.684l2.248-3.888
		c1.495,0.501,3.032,0.893,4.616,1.159v4.343c0,1.039,0.839,1.873,1.873,1.873l7.515,0.006c1.036,0,1.878-0.84,1.878-1.879v-4.484
		c1.567-0.319,3.101-0.751,4.584-1.293l2.166,3.741c0.521,0.905,1.658,1.207,2.561,0.689l6.507-3.756
		c0.893-0.512,1.204-1.665,0.683-2.567l-2.25-3.891c1.197-1.046,2.312-2.183,3.328-3.403l3.754,2.168
		c0.901,0.518,2.042,0.207,2.565-0.69l3.754-6.508c0.517-0.892,0.207-2.045-0.683-2.56l-3.894-2.248
		c0.508-1.486,0.896-3.031,1.173-4.607h4.333c1.034,0,1.872-0.843,1.874-1.884v-7.507
		C119.618,226.746,118.772,225.912,117.74,225.912z M83.109,251.441c-10.759,0-19.481-8.727-19.481-19.482
		c0-10.759,8.722-19.483,19.481-19.483c10.759,0,19.478,8.724,19.478,19.483C102.587,242.713,93.868,251.441,83.109,251.441z"/>
	<path style="fill:#78D2FF;" d="M280.859,154.131c2.501-7.48-1.539-15.581-9.027-18.085c-1.607-0.537-3.245-0.756-4.844-0.713
		c0.69-7.541-3.826-14.849-11.315-17.354c-8.628-2.885-17.959,1.687-21.002,10.218c-0.708-0.411-1.475-0.764-2.279-1.033
		c-6.418-2.146-13.358,1.311-15.505,7.731c-1.756,5.251,0.251,10.848,4.549,13.887c0.851,0.637,1.817,1.157,2.892,1.517
		l39.119,13.083c1.192,0.399,2.419,0.552,3.607,0.508C273.121,164.001,278.83,160.198,280.859,154.131z"/>
	<g>
		<path style="fill:#80D7FF;" d="M169.267,296.447l-18.841,71.224c-1.566,5.919-7.636,9.449-13.555,7.884l-87.848-23.238
			c-5.919-1.566-9.449-7.636-7.884-13.555l18.841-71.224c1.566-5.919,7.636-9.449,13.555-7.884l87.849,23.238
			C167.302,284.458,170.832,290.528,169.267,296.447z"/>
		<path style="fill:#3CA3F7;" d="M167.935,301.482l-17.509,66.189c-1.566,5.919-7.636,9.449-13.555,7.884l-87.848-23.238
			c-5.919-1.566-9.449-7.636-7.884-13.555l17.509-66.189L167.935,301.482z"/>
		<g>
			<path style="fill:#FD6120;" d="M74.781,269.076c-0.429,1.622-2.09,2.59-3.715,2.16c-1.62-0.429-2.588-2.091-2.159-3.714
				c0.429-1.621,2.092-2.588,3.713-2.16C74.245,265.792,75.21,267.455,74.781,269.076z"/>
			<path style="fill:#FFC907;" d="M83.004,271.251c-0.429,1.622-2.09,2.59-3.713,2.16c-1.621-0.429-2.589-2.092-2.16-3.714
				c0.429-1.621,2.092-2.588,3.714-2.159C82.468,267.967,83.433,269.63,83.004,271.251z"/>
			<path style="fill:#B1BE46;" d="M91.227,273.426c-0.429,1.622-2.093,2.589-3.713,2.16c-1.622-0.429-2.589-2.092-2.16-3.714
				c0.429-1.621,2.092-2.589,3.714-2.159C90.688,270.142,91.656,271.805,91.227,273.426z"/>
		</g>
		<path style="fill:#ECF3FF;" d="M102.585,296.718l-35.655-9.432c-1.678-0.444-2.678-2.164-2.235-3.842l0,0
			c0.444-1.678,2.164-2.678,3.842-2.234l35.655,9.432c1.678,0.444,2.678,2.164,2.235,3.842l0,0
			C105.983,296.162,104.263,297.162,102.585,296.718z"/>
		<path style="fill:#ECF3FF;" d="M155.059,310.599l-41.825-11.064c-1.678-0.444-2.678-2.164-2.234-3.842l0,0
			c0.444-1.678,2.164-2.679,3.842-2.235l41.825,11.064c1.678,0.444,2.678,2.164,2.235,3.842v0
			C158.457,310.042,156.736,311.043,155.059,310.599z"/>
		<path style="fill:#ECF3FF;" d="M105.105,359.959l-55.276-14.622c-1.678-0.444-2.678-2.164-2.235-3.842h0
			c0.444-1.678,2.164-2.678,3.842-2.235l55.276,14.622c1.678,0.444,2.678,2.164,2.235,3.842v0
			C108.504,359.402,106.783,360.402,105.105,359.959z"/>
		<path style="fill:#ECF3FF;" d="M150.987,325.991l-41.825-11.064c-1.678-0.444-2.679-2.164-2.235-3.842l0,0
			c0.444-1.678,2.164-2.678,3.842-2.235l41.825,11.064c1.678,0.444,2.678,2.164,2.235,3.842l0,0
			C154.385,325.435,152.665,326.435,150.987,325.991z"/>
		<path style="fill:#ECF3FF;" d="M137.07,346.291l-33.837-8.951c-1.678-0.444-2.679-2.164-2.235-3.842l0,0
			c0.444-1.678,2.164-2.678,3.842-2.235l33.837,8.951c1.678,0.444,2.678,2.164,2.235,3.842l0,0
			C140.468,345.734,138.748,346.735,137.07,346.291z"/>
		<path style="fill:#ECF3FF;" d="M131.364,331.905l-24.948-6.599c-1.678-0.444-2.678-2.164-2.235-3.842l0,0
			c0.444-1.678,2.164-2.678,3.842-2.235l24.948,6.599c1.678,0.444,2.678,2.164,2.235,3.842v0
			C134.762,331.348,133.042,332.349,131.364,331.905z"/>
		
			<rect x="56.566" y="295.734" transform="matrix(0.9667 0.2557 -0.2557 0.9667 83.637 -9.3487)" style="fill:#ECF3FF;" width="42.403" height="42.403"/>
		<g>
			
				<rect x="77.421" y="286.952" transform="matrix(0.8644 -0.5028 0.5028 0.8644 -148.8011 82.0682)" style="fill:#3CA3F7;" width="0.692" height="59.967"/>
		</g>
		<g>
			
				<rect x="47.784" y="316.589" transform="matrix(0.8644 -0.5028 0.5028 0.8644 -148.7994 82.0666)" style="fill:#3CA3F7;" width="59.967" height="0.692"/>
		</g>
	</g>
	<g>
		<path style="fill:#C7DBFB;" d="M121.066,117.114c-28.734,0-52.03,18.358-52.03,41.004c0,16.369,12.205,30.452,29.783,37.027
			c-0.344,0.71-0.652,1.438-1.056,2.127c-3.437,5.768-8.472,10.138-14.462,13.077c13.276,0.946,25.567-3.028,33.674-11.393
			c1.35,0.081,2.711,0.166,4.091,0.166c28.727,0,52.009-18.36,52.009-41.005C173.075,135.473,149.792,117.114,121.066,117.114z"/>
		
			<ellipse transform="matrix(0.9213 -0.389 0.389 0.9213 -53.0875 50.8495)" style="fill:#ECF3FF;" cx="99.041" cy="156.536" rx="7.264" ry="7.264"/>
		
			<ellipse transform="matrix(0.7071 -0.7071 0.7071 0.7071 -74.7335 132.6503)" style="fill:#ECF3FF;" cx="122.756" cy="156.536" rx="7.264" ry="7.264"/>
		
			<ellipse transform="matrix(0.7071 -0.7071 0.7071 0.7071 -68.3083 148.162)" style="fill:#ECF3FF;" cx="144.693" cy="156.536" rx="7.264" ry="7.264"/>
	</g>
	<g>
		<path style="fill:#474157;" d="M418.998,304.17c-0.007,0.005-0.011,0.01-0.016,0.015c-3.415,3.397-8.939,3.386-12.338-0.03
			l-26.597-26.726c-3.393-3.412-3.387-8.923,0.014-12.322c0.005-0.006,0.01-0.01,0.015-0.016c3.413-3.398,8.936-3.386,12.334,0.029
			l26.601,26.728C422.404,295.258,422.395,300.772,418.998,304.17L418.998,304.17z"/>
		<path style="fill:#625B7C;" d="M410.065,301.685c-0.791,0.787-2.158,0.709-3.041-0.176l-17.881-17.958
			c-0.881-0.884-0.953-2.249-0.16-3.041c0.802-0.797,2.168-0.721,3.051,0.166l17.88,17.957c0.881,0.884,0.952,2.249,0.16,3.043
			L410.065,301.685z"/>
		<g>
			<path style="fill:#474157;" d="M383.493,268.679c-1.706,1.699-4.468,1.696-6.168-0.013l-5.434-5.609
				c-1.697-1.703-1.693-4.459,0.005-6.159c0.003-0.003,0.005-0.004,0.009-0.008c1.706-1.699,4.466-1.694,6.167,0.013l5.433,5.609
				c1.698,1.704,1.693,4.461-0.008,6.159C383.498,268.671,383.494,268.678,383.493,268.679z"/>
		</g>
		<path style="fill:#31C9AC;" d="M376.375,261.283h-0.002c-6.465,6.467-15.051,10.019-24.174,10.004
			c-18.8-0.036-34.063-15.357-34.03-34.154c0.013-9.072,3.566-17.613,9.997-24.041c6.461-6.462,15.04-10.011,24.159-9.998
			c9.092,0.018,17.65,3.582,24.085,10.039c6.436,6.461,9.972,15.024,9.956,24.12C386.35,246.322,382.801,254.855,376.375,261.283
			L376.375,261.283z"/>
		<g>
			<path style="fill:none;" d="M373.492,258.404"/>
		</g>
		<path style="fill:#B3C9E8;" d="M334.334,219.258c-4.786,4.788-7.429,11.143-7.442,17.891
			c-0.024,13.988,11.335,25.388,25.324,25.412c6.787,0.011,13.175-2.631,17.989-7.447l0.002,0.002
			c4.784-4.785,7.423-11.133,7.437-17.879c0.013-6.765-2.62-13.139-7.412-17.947c-4.792-4.807-11.157-7.461-17.924-7.472
			C345.528,211.806,339.145,214.45,334.334,219.258L334.334,219.258z"/>
		<path style="fill:#C7DBFB;" d="M370.232,219.291c-4.792-4.807-11.157-7.461-17.924-7.472c-1.905-0.003-3.78,0.209-5.595,0.614
			c-2.761,1.248-5.307,2.996-7.518,5.207c-4.786,4.786-7.431,11.141-7.441,17.891c-0.025,13.988,11.334,25.388,25.323,25.412
			c1.909,0.005,3.783-0.21,5.603-0.616c2.765-1.248,5.312-2.997,7.525-5.211l0.002,0.002c4.784-4.785,7.423-11.133,7.437-17.879
			C377.657,230.473,375.023,224.1,370.232,219.291z"/>
		<g>
			<defs>
				<path id="SVGID_1_" d="M334.334,219.258c-4.786,4.788-7.429,11.143-7.442,17.891c-0.024,13.988,11.335,25.388,25.324,25.412
					c6.787,0.011,13.175-2.631,17.989-7.447l0.002,0.002c4.784-4.785,7.423-11.133,7.437-17.879
					c0.013-6.765-2.62-13.139-7.412-17.947c-4.792-4.807-11.157-7.461-17.924-7.472C345.528,211.806,339.145,214.45,334.334,219.258
					L334.334,219.258z"/>
			</defs>
			<clipPath id="SVGID_00000059291368407386544510000007651038652346742440_">
				<use xlink:href="#SVGID_1_"  style="overflow:visible;"/>
			</clipPath>
		</g>
	</g>
	<g>
		<path style="fill:#C7DBFB;" d="M399.33,103.323l-29.532-23.865c-3.575-2.889-8.825-2.332-11.71,1.239l-57.096,70.655
			c-2.888,3.574-2.327,8.819,1.248,11.708l29.532,23.865c3.576,2.89,8.814,2.331,11.702-1.243l57.096-70.655
			C403.456,111.456,402.907,106.213,399.33,103.323z"/>
		<path style="fill:#FFFFFF;" d="M374.956,91.887l11.133,8.996c0.314,0.254,0.361,0.715,0.109,1.027
			c-0.255,0.316-0.714,0.364-1.028,0.11l-11.133-8.996c-0.312-0.252-0.36-0.71-0.104-1.025
			C374.184,91.687,374.643,91.635,374.956,91.887z"/>
		<path style="fill:#FFFFFF;" d="M320.856,170.221c-2.069-1.672-2.387-4.709-0.716-6.777c1.674-2.071,4.704-2.391,6.773-0.719
			c2.072,1.675,2.394,4.703,0.72,6.774C325.962,171.567,322.928,171.896,320.856,170.221z"/>
		<g>
			
				<rect x="317.117" y="107.819" transform="matrix(0.6285 -0.7778 0.7778 0.6285 28.5575 322.7503)" style="fill:#FFFFFF;" width="70.097" height="47.318"/>
		</g>
		<path style="fill:#78D2FF;" d="M384.006,123.012l-30.248-24.444c-0.824-0.666-0.952-1.874-0.286-2.699l0,0
			c0.666-0.824,1.874-0.953,2.699-0.286l30.248,24.444c0.824,0.666,0.953,1.874,0.286,2.699l0,0
			C386.038,123.55,384.83,123.678,384.006,123.012z"/>
		<path style="fill:#78D2FF;" d="M379.396,128.717l-30.248-24.444c-0.824-0.666-0.952-1.874-0.286-2.699l0,0
			c0.666-0.824,1.874-0.952,2.699-0.286l30.248,24.443c0.824,0.666,0.952,1.874,0.286,2.699l0,0
			C381.428,129.254,380.22,129.383,379.396,128.717z"/>
		<path style="fill:#78D2FF;" d="M374.786,134.421l-30.248-24.444c-0.824-0.666-0.953-1.874-0.286-2.699l0,0
			c0.666-0.824,1.874-0.952,2.699-0.286l30.248,24.444c0.824,0.666,0.953,1.874,0.286,2.699l0,0
			C376.818,134.959,375.61,135.087,374.786,134.421z"/>
		<path style="fill:#78D2FF;" d="M353.708,160.504L323.46,136.06c-0.824-0.666-0.952-1.874-0.286-2.699l0,0
			c0.666-0.824,1.874-0.952,2.699-0.286l30.248,24.443c0.824,0.666,0.953,1.874,0.286,2.699l0,0
			C355.741,161.042,354.533,161.17,353.708,160.504z"/>
		<path style="fill:#78D2FF;" d="M349.098,166.208l-30.248-24.444c-0.824-0.666-0.953-1.874-0.286-2.699l0,0
			c0.666-0.824,1.874-0.952,2.699-0.286l30.248,24.444c0.824,0.666,0.953,1.874,0.286,2.699l0,0
			C351.131,166.746,349.923,166.874,349.098,166.208z"/>
		<path style="fill:#78D2FF;" d="M367.792,143.075l-30.248-24.443c-0.824-0.666-0.952-1.874-0.286-2.699l0,0
			c0.666-0.824,1.874-0.952,2.699-0.286l30.248,24.443c0.824,0.666,0.953,1.874,0.286,2.699l0,0
			C369.825,143.613,368.617,143.741,367.792,143.075z"/>
		<path style="fill:#78D2FF;" d="M355.997,142.973l-23.062-18.637c-0.824-0.666-0.953-1.874-0.286-2.699l0,0
			c0.666-0.824,1.874-0.952,2.699-0.286l23.062,18.637c0.824,0.666,0.953,1.874,0.286,2.699l0,0
			C358.029,143.511,356.821,143.639,355.997,142.973z"/>
		<path style="fill:#78D2FF;" d="M345.91,144.252l-17.585-14.211c-0.824-0.666-0.953-1.874-0.286-2.699l0,0
			c0.666-0.824,1.874-0.952,2.699-0.286l17.585,14.211c0.824,0.666,0.952,1.874,0.286,2.699l0,0
			C347.942,144.79,346.734,144.918,345.91,144.252z"/>
	</g>
	<g>
		<path style="fill:#9BB2D3;" d="M444.228,347.456l-106.453-58.398c-1.207-0.662-2.701-0.258-3.338,0.904l-23.729,43.256
			c-0.918,1.673-0.37,3.738,1.224,4.612l105.05,57.628c1.594,0.874,3.63,0.227,4.548-1.446l23.729-43.255
			C445.896,349.596,445.434,348.118,444.228,347.456z"/>
		<path style="fill:#C7DBFB;" d="M443.708,347.171l-106.453-58.398c-1.207-0.662-2.69-0.277-3.314,0.86l-23.229,42.344
			c-0.898,1.638-0.335,3.674,1.259,4.548l105.05,57.628c1.594,0.874,3.614,0.256,4.513-1.382l23.229-42.344
			C445.387,349.291,444.914,347.833,443.708,347.171z"/>
		
			<rect x="331.22" y="300.642" transform="matrix(0.481 -0.8767 0.8767 0.481 -93.5054 451.9949)" style="fill:#9BB2D3;" width="7.551" height="8.656"/>
		
			<rect x="340.744" y="305.868" transform="matrix(0.481 -0.8767 0.8767 0.481 -93.1441 463.0536)" style="fill:#9BB2D3;" width="7.551" height="8.656"/>
		
			<rect x="350.564" y="311.255" transform="matrix(0.481 -0.8767 0.8767 0.481 -92.7686 474.4639)" style="fill:#9BB2D3;" width="7.551" height="8.656"/>
		
			<rect x="360.088" y="316.478" transform="matrix(0.481 -0.8767 0.8767 0.481 -92.4053 485.5276)" style="fill:#9BB2D3;" width="7.551" height="8.658"/>
		
			<rect x="345.528" y="320.434" transform="matrix(0.481 -0.8767 0.8767 0.481 -103.4299 474.8134)" style="fill:#9BB2D3;" width="7.552" height="8.656"/>
		
			<rect x="355.052" y="325.658" transform="matrix(0.481 -0.8767 0.8767 0.481 -103.0666 485.8771)" style="fill:#9BB2D3;" width="7.552" height="8.658"/>
		
			<rect x="335.667" y="338.499" transform="matrix(0.481 -0.8767 0.8767 0.481 -124.3874 475.5444)" style="fill:#9BB2D3;" width="7.55" height="8.657"/>
		
			<rect x="350.053" y="334.772" transform="matrix(0.481 -0.8767 0.8767 0.481 -113.6532 486.2242)" style="fill:#9BB2D3;" width="7.55" height="8.658"/>
		
			<rect x="330.831" y="307.07" transform="matrix(0.481 -0.8767 0.8767 0.481 -103.9896 457.743)" style="fill:#9BB2D3;" width="7.552" height="19.258"/>
		
			<rect x="369.694" y="321.748" transform="matrix(0.481 -0.8767 0.8767 0.481 -92.04 496.6832)" style="fill:#9BB2D3;" width="7.551" height="8.657"/>
		
			<rect x="379.218" y="326.972" transform="matrix(0.481 -0.8767 0.8767 0.481 -91.6781 507.7426)" style="fill:#9BB2D3;" width="7.551" height="8.658"/>
		
			<rect x="389.039" y="332.36" transform="matrix(0.481 -0.8767 0.8767 0.481 -91.3049 519.1478)" style="fill:#9BB2D3;" width="7.551" height="8.658"/>
		
			<rect x="398.563" y="337.585" transform="matrix(0.481 -0.8767 0.8767 0.481 -90.9403 530.2151)" style="fill:#9BB2D3;" width="7.551" height="8.658"/>
		
			<rect x="384.003" y="341.539" transform="matrix(0.481 -0.8767 0.8767 0.481 -101.966 519.4975)" style="fill:#9BB2D3;" width="7.552" height="8.658"/>
		
			<rect x="393.527" y="346.764" transform="matrix(0.481 -0.8767 0.8767 0.481 -101.6033 530.5599)" style="fill:#9BB2D3;" width="7.552" height="8.658"/>
		
			<rect x="364.658" y="330.928" transform="matrix(0.481 -0.8767 0.8767 0.481 -102.7013 497.0327)" style="fill:#9BB2D3;" width="7.552" height="8.657"/>
		
			<rect x="374.182" y="336.151" transform="matrix(0.481 -0.8767 0.8767 0.481 -102.3385 508.0948)" style="fill:#9BB2D3;" width="7.552" height="8.658"/>
		
			<rect x="408.235" y="342.891" transform="matrix(0.481 -0.8767 0.8767 0.481 -90.5727 541.4471)" style="fill:#9BB2D3;" width="7.551" height="8.658"/>
		
			<rect x="418.056" y="348.279" transform="matrix(0.481 -0.8767 0.8767 0.481 -90.1986 552.8545)" style="fill:#9BB2D3;" width="7.551" height="8.657"/>
		
			<rect x="427.58" y="353.503" transform="matrix(0.481 -0.8767 0.8767 0.481 -89.8359 563.9158)" style="fill:#9BB2D3;" width="7.551" height="8.657"/>
		
			<rect x="413.02" y="357.458" transform="matrix(0.481 -0.8767 0.8767 0.481 -100.8599 553.204)" style="fill:#9BB2D3;" width="7.552" height="8.657"/>
		
			<rect x="422.543" y="362.682" transform="matrix(0.481 -0.8767 0.8767 0.481 -100.4973 564.2654)" style="fill:#9BB2D3;" width="7.552" height="8.657"/>
		
			<rect x="403.199" y="352.07" transform="matrix(0.481 -0.8767 0.8767 0.481 -101.2352 541.7935)" style="fill:#9BB2D3;" width="7.552" height="8.658"/>
		
			<rect x="379.077" y="350.695" transform="matrix(0.481 -0.8767 0.8767 0.481 -112.5482 519.9349)" style="fill:#9BB2D3;" width="7.55" height="8.656"/>
		
			<rect x="388.602" y="355.92" transform="matrix(0.481 -0.8767 0.8767 0.481 -112.1864 530.9946)" style="fill:#9BB2D3;" width="7.55" height="8.656"/>
		
			<rect x="359.733" y="340.083" transform="matrix(0.481 -0.8767 0.8767 0.481 -113.2864 497.462)" style="fill:#9BB2D3;" width="7.55" height="8.656"/>
		
			<rect x="369.257" y="345.307" transform="matrix(0.481 -0.8767 0.8767 0.481 -112.922 508.5289)" style="fill:#9BB2D3;" width="7.55" height="8.658"/>
		
			<rect x="398.273" y="361.225" transform="matrix(0.481 -0.8767 0.8767 0.481 -111.8186 542.2269)" style="fill:#9BB2D3;" width="7.55" height="8.657"/>
		
			<rect x="393.56" y="370.258" transform="matrix(0.481 -0.8767 0.8767 0.481 -122.183 542.7849)" style="fill:#9BB2D3;" width="7.55" height="8.657"/>
		
			<rect x="403.084" y="375.482" transform="matrix(0.481 -0.8767 0.8767 0.481 -121.8199 553.8489)" style="fill:#9BB2D3;" width="7.55" height="8.658"/>
		
			<rect x="412.757" y="380.788" transform="matrix(0.481 -0.8767 0.8767 0.481 -121.4518 565.0825)" style="fill:#9BB2D3;" width="7.55" height="8.658"/>
		
			<rect x="325.846" y="333.112" transform="matrix(0.481 -0.8767 0.8767 0.481 -124.7617 464.1359)" style="fill:#9BB2D3;" width="7.55" height="8.656"/>
		
			<rect x="316.322" y="327.887" transform="matrix(0.481 -0.8767 0.8767 0.481 -125.1243 453.0741)" style="fill:#9BB2D3;" width="7.55" height="8.656"/>
		
			<rect x="330.857" y="313.21" transform="matrix(0.481 -0.8767 0.8767 0.481 -114.3845 463.9268)" style="fill:#9BB2D3;" width="7.55" height="30.72"/>
		
			<rect x="412.783" y="363.754" transform="matrix(0.481 -0.8767 0.8767 0.481 -111.2662 559.0787)" style="fill:#9BB2D3;" width="7.55" height="19.519"/>
		
			<rect x="364.465" y="332.313" transform="matrix(0.481 -0.8767 0.8767 0.481 -123.2911 508.9914)" style="fill:#9BB2D3;" width="7.55" height="52.625"/>
		
			<rect x="331.873" y="299.453" transform="matrix(0.481 -0.8767 0.8767 0.481 -92.1233 451.9516)" style="fill:#FFFFFF;" width="7.549" height="8.656"/>
		
			<rect x="341.397" y="304.678" transform="matrix(0.481 -0.8767 0.8767 0.481 -91.761 463.013)" style="fill:#FFFFFF;" width="7.549" height="8.656"/>
		
			<rect x="351.218" y="310.066" transform="matrix(0.481 -0.8767 0.8767 0.481 -91.3872 474.4186)" style="fill:#FFFFFF;" width="7.549" height="8.656"/>
		
			<rect x="360.741" y="315.289" transform="matrix(0.481 -0.8767 0.8767 0.481 -91.0239 485.4823)" style="fill:#FFFFFF;" width="7.549" height="8.658"/>
		
			<rect x="346.181" y="319.245" transform="matrix(0.481 -0.8767 0.8767 0.481 -102.0485 474.7681)" style="fill:#FFFFFF;" width="7.551" height="8.656"/>
		
			<rect x="355.705" y="324.468" transform="matrix(0.481 -0.8767 0.8767 0.481 -101.6852 485.8318)" style="fill:#FFFFFF;" width="7.551" height="8.658"/>
		
			<rect x="336.32" y="337.309" transform="matrix(0.481 -0.8767 0.8767 0.481 -123.0056 475.4991)" style="fill:#FFFFFF;" width="7.551" height="8.657"/>
		
			<rect x="350.705" y="333.583" transform="matrix(0.481 -0.8767 0.8767 0.481 -112.2715 486.1789)" style="fill:#FFFFFF;" width="7.551" height="8.658"/>
		
			<rect x="331.484" y="305.881" transform="matrix(0.481 -0.8767 0.8767 0.481 -102.6082 457.6978)" style="fill:#FFFFFF;" width="7.551" height="19.259"/>
		
			<rect x="370.347" y="320.559" transform="matrix(0.481 -0.8767 0.8767 0.481 -90.6603 496.6332)" style="fill:#FFFFFF;" width="7.549" height="8.657"/>
		
			<rect x="379.871" y="325.783" transform="matrix(0.481 -0.8767 0.8767 0.481 -90.2967 507.6974)" style="fill:#FFFFFF;" width="7.549" height="8.658"/>
		
			<rect x="389.692" y="331.171" transform="matrix(0.481 -0.8767 0.8767 0.481 -89.9233 519.1028)" style="fill:#FFFFFF;" width="7.549" height="8.658"/>
		
			<rect x="399.216" y="336.395" transform="matrix(0.481 -0.8767 0.8767 0.481 -89.5589 530.1696)" style="fill:#FFFFFF;" width="7.549" height="8.658"/>
		
			<rect x="384.656" y="340.35" transform="matrix(0.481 -0.8767 0.8767 0.481 -100.5829 519.457)" style="fill:#FFFFFF;" width="7.551" height="8.658"/>
		
			<rect x="394.18" y="345.575" transform="matrix(0.481 -0.8767 0.8767 0.481 -100.222 530.5143)" style="fill:#FFFFFF;" width="7.551" height="8.658"/>
		
			<rect x="365.311" y="329.738" transform="matrix(0.481 -0.8767 0.8767 0.481 -101.3199 496.9875)" style="fill:#FFFFFF;" width="7.551" height="8.657"/>
		
			<rect x="374.835" y="334.962" transform="matrix(0.481 -0.8767 0.8767 0.481 -100.9571 508.0495)" style="fill:#FFFFFF;" width="7.551" height="8.658"/>
		
			<rect x="408.888" y="341.701" transform="matrix(0.481 -0.8767 0.8767 0.481 -89.1925 541.3987)" style="fill:#FFFFFF;" width="7.549" height="8.658"/>
		
			<rect x="418.709" y="347.089" transform="matrix(0.481 -0.8767 0.8767 0.481 -88.8183 552.8063)" style="fill:#FFFFFF;" width="7.549" height="8.657"/>
		
			<rect x="428.233" y="352.314" transform="matrix(0.481 -0.8767 0.8767 0.481 -88.4566 563.8654)" style="fill:#FFFFFF;" width="7.549" height="8.657"/>
		
			<rect x="413.673" y="356.269" transform="matrix(0.481 -0.8767 0.8767 0.481 -99.4785 553.1588)" style="fill:#FFFFFF;" width="7.551" height="8.657"/>
		
			<rect x="423.197" y="361.493" transform="matrix(0.481 -0.8767 0.8767 0.481 -99.1159 564.2201)" style="fill:#FFFFFF;" width="7.551" height="8.657"/>
		
			<rect x="403.852" y="350.881" transform="matrix(0.481 -0.8767 0.8767 0.481 -99.8519 541.7533)" style="fill:#FFFFFF;" width="7.551" height="8.658"/>
		
			<rect x="379.73" y="349.506" transform="matrix(0.481 -0.8767 0.8767 0.481 -111.1671 519.8875)" style="fill:#FFFFFF;" width="7.551" height="8.656"/>
		
			<rect x="389.254" y="354.73" transform="matrix(0.481 -0.8767 0.8767 0.481 -110.8056 530.9465)" style="fill:#FFFFFF;" width="7.551" height="8.656"/>
		
			<rect x="360.385" y="338.894" transform="matrix(0.481 -0.8767 0.8767 0.481 -111.9022 497.4242)" style="fill:#FFFFFF;" width="7.551" height="8.656"/>
		
			<rect x="369.909" y="344.117" transform="matrix(0.481 -0.8767 0.8767 0.481 -111.5409 508.4814)" style="fill:#FFFFFF;" width="7.551" height="8.658"/>
		
			<rect x="398.926" y="360.036" transform="matrix(0.481 -0.8767 0.8767 0.481 -110.4358 542.1844)" style="fill:#FFFFFF;" width="7.551" height="8.657"/>
		
			<rect x="394.212" y="369.068" transform="matrix(0.481 -0.8767 0.8767 0.481 -120.8013 542.7397)" style="fill:#FFFFFF;" width="7.551" height="8.657"/>
		
			<rect x="403.736" y="374.292" transform="matrix(0.481 -0.8767 0.8767 0.481 -120.4399 553.7983)" style="fill:#FFFFFF;" width="7.551" height="8.658"/>
		
			<rect x="413.409" y="379.598" transform="matrix(0.481 -0.8767 0.8767 0.481 -120.071 565.0345)" style="fill:#FFFFFF;" width="7.551" height="8.658"/>
		
			<rect x="326.499" y="331.922" transform="matrix(0.481 -0.8767 0.8767 0.481 -123.3793 464.0929)" style="fill:#FFFFFF;" width="7.551" height="8.656"/>
		
			<rect x="316.974" y="326.697" transform="matrix(0.481 -0.8767 0.8767 0.481 -123.7426 453.0288)" style="fill:#FFFFFF;" width="7.551" height="8.656"/>
		
			<rect x="331.509" y="312.021" transform="matrix(0.481 -0.8767 0.8767 0.481 -113.0034 463.8796)" style="fill:#FFFFFF;" width="7.551" height="30.72"/>
		
			<rect x="413.435" y="362.564" transform="matrix(0.481 -0.8767 0.8767 0.481 -109.8831 559.0371)" style="fill:#FFFFFF;" width="7.551" height="19.519"/>
		
			<rect x="365.117" y="331.123" transform="matrix(0.481 -0.8767 0.8767 0.481 -121.9096 508.9453)" style="fill:#FFFFFF;" width="7.551" height="52.625"/>
		
			<rect x="331.605" y="299.94" transform="matrix(0.481 -0.8767 0.8767 0.481 -92.6894 451.9682)" style="fill:#F7F7F7;" width="7.551" height="8.656"/>
		
			<rect x="341.13" y="305.165" transform="matrix(0.481 -0.8767 0.8767 0.481 -92.3265 463.0313)" style="fill:#F7F7F7;" width="7.551" height="8.656"/>
		
			<rect x="350.95" y="310.552" transform="matrix(0.481 -0.8767 0.8767 0.481 -91.9527 474.4369)" style="fill:#F7F7F7;" width="7.551" height="8.656"/>
		
			<rect x="360.474" y="315.776" transform="matrix(0.481 -0.8767 0.8767 0.481 -91.5893 485.5008)" style="fill:#F7F7F7;" width="7.551" height="8.658"/>
		
			<rect x="345.915" y="319.731" transform="matrix(0.481 -0.8767 0.8767 0.481 -102.6127 474.7891)" style="fill:#F7F7F7;" width="7.55" height="8.656"/>
		
			<rect x="355.439" y="324.955" transform="matrix(0.481 -0.8767 0.8767 0.481 -102.2503 485.8503)" style="fill:#F7F7F7;" width="7.55" height="8.658"/>
		
			<rect x="336.053" y="337.796" transform="matrix(0.481 -0.8767 0.8767 0.481 -123.5702 475.5202)" style="fill:#F7F7F7;" width="7.551" height="8.657"/>
		
			<rect x="350.438" y="334.07" transform="matrix(0.481 -0.8767 0.8767 0.481 -112.8387 486.1927)" style="fill:#F7F7F7;" width="7.55" height="8.658"/>
		
			<rect x="331.218" y="306.367" transform="matrix(0.481 -0.8767 0.8767 0.481 -103.1733 457.7162)" style="fill:#F7F7F7;" width="7.55" height="19.258"/>
		
			<rect x="370.08" y="321.046" transform="matrix(0.481 -0.8767 0.8767 0.481 -91.224 496.6565)" style="fill:#F7F7F7;" width="7.551" height="8.657"/>
		
			<rect x="379.603" y="326.27" transform="matrix(0.481 -0.8767 0.8767 0.481 -90.8622 507.7159)" style="fill:#F7F7F7;" width="7.551" height="8.658"/>
		
			<rect x="389.424" y="331.658" transform="matrix(0.481 -0.8767 0.8767 0.481 -90.4868 519.1265)" style="fill:#F7F7F7;" width="7.551" height="8.658"/>
		
			<rect x="398.948" y="336.882" transform="matrix(0.481 -0.8767 0.8767 0.481 -90.1262 530.1833)" style="fill:#F7F7F7;" width="7.551" height="8.658"/>
		
			<rect x="384.389" y="340.836" transform="matrix(0.481 -0.8767 0.8767 0.481 -101.1497 519.4708)" style="fill:#F7F7F7;" width="7.55" height="8.658"/>
		
			<rect x="393.913" y="346.061" transform="matrix(0.481 -0.8767 0.8767 0.481 -100.786 530.5356)" style="fill:#F7F7F7;" width="7.55" height="8.658"/>
		
			<rect x="365.045" y="330.225" transform="matrix(0.481 -0.8767 0.8767 0.481 -101.885 497.006)" style="fill:#F7F7F7;" width="7.55" height="8.657"/>
		
			<rect x="374.568" y="335.448" transform="matrix(0.481 -0.8767 0.8767 0.481 -101.5221 508.068)" style="fill:#F7F7F7;" width="7.55" height="8.659"/>
		
			<rect x="408.62" y="342.188" transform="matrix(0.481 -0.8767 0.8767 0.481 -89.7549 541.4252)" style="fill:#F7F7F7;" width="7.551" height="8.658"/>
		
			<rect x="418.441" y="347.576" transform="matrix(0.481 -0.8767 0.8767 0.481 -89.3826 552.8278)" style="fill:#F7F7F7;" width="7.551" height="8.657"/>
		
			<rect x="427.965" y="352.801" transform="matrix(0.481 -0.8767 0.8767 0.481 -89.02 563.8892)" style="fill:#F7F7F7;" width="7.551" height="8.657"/>
		
			<rect x="337.62" y="292.512" transform="matrix(0.481 -0.8767 0.8767 0.481 -84.0625 451.683)" style="fill:#9BB2D3;" width="3.67" height="8.656"/>
		
			<rect x="347.145" y="297.737" transform="matrix(0.481 -0.8767 0.8767 0.481 -83.7003 462.7441)" style="fill:#9BB2D3;" width="3.67" height="8.656"/>
		
			<rect x="356.965" y="303.124" transform="matrix(0.481 -0.8767 0.8767 0.481 -83.3265 474.1498)" style="fill:#9BB2D3;" width="3.67" height="8.656"/>
		
			<rect x="366.489" y="308.348" transform="matrix(0.481 -0.8767 0.8767 0.481 -82.9632 485.2134)" style="fill:#9BB2D3;" width="3.67" height="8.658"/>
		
			<rect x="376.095" y="313.618" transform="matrix(0.481 -0.8767 0.8767 0.481 -82.5962 496.3737)" style="fill:#9BB2D3;" width="3.67" height="8.657"/>
		
			<rect x="385.618" y="318.841" transform="matrix(0.481 -0.8767 0.8767 0.481 -82.2343 507.4331)" style="fill:#9BB2D3;" width="3.67" height="8.658"/>
		
			<rect x="395.439" y="324.229" transform="matrix(0.481 -0.8767 0.8767 0.481 -81.859 518.8434)" style="fill:#9BB2D3;" width="3.67" height="8.658"/>
		
			<rect x="404.964" y="329.454" transform="matrix(0.481 -0.8767 0.8767 0.481 -81.4984 529.9005)" style="fill:#9BB2D3;" width="3.67" height="8.658"/>
		
			<rect x="414.636" y="334.76" transform="matrix(0.481 -0.8767 0.8767 0.481 -81.1301 541.1345)" style="fill:#9BB2D3;" width="3.67" height="8.658"/>
		
			<rect x="424.457" y="340.148" transform="matrix(0.481 -0.8767 0.8767 0.481 -80.7559 552.5421)" style="fill:#9BB2D3;" width="3.67" height="8.657"/>
		
			<rect x="433.98" y="345.372" transform="matrix(0.481 -0.8767 0.8767 0.481 -80.3921 563.6063)" style="fill:#9BB2D3;" width="3.67" height="8.657"/>
		
			<rect x="337.937" y="291.934" transform="matrix(0.481 -0.8767 0.8767 0.481 -83.3904 451.6633)" style="fill:#FFFFFF;" width="3.671" height="8.656"/>
		
			<rect x="347.462" y="297.159" transform="matrix(0.481 -0.8767 0.8767 0.481 -83.0282 462.7245)" style="fill:#FFFFFF;" width="3.671" height="8.656"/>
		
			<rect x="357.282" y="302.546" transform="matrix(0.481 -0.8767 0.8767 0.481 -82.6527 474.1345)" style="fill:#FFFFFF;" width="3.671" height="8.656"/>
		
			<rect x="366.806" y="307.77" transform="matrix(0.481 -0.8767 0.8767 0.481 -82.2903 485.1957)" style="fill:#FFFFFF;" width="3.671" height="8.658"/>
		
			<rect x="376.411" y="313.04" transform="matrix(0.481 -0.8767 0.8767 0.481 -81.9249 496.3517)" style="fill:#FFFFFF;" width="3.671" height="8.657"/>
		
			<rect x="385.935" y="318.263" transform="matrix(0.481 -0.8767 0.8767 0.481 -81.5631 507.411)" style="fill:#FFFFFF;" width="3.671" height="8.658"/>
		
			<rect x="395.756" y="323.651" transform="matrix(0.481 -0.8767 0.8767 0.481 -81.1898 518.8165)" style="fill:#FFFFFF;" width="3.671" height="8.658"/>
		
			<rect x="405.28" y="328.876" transform="matrix(0.481 -0.8767 0.8767 0.481 -80.8252 529.8835)" style="fill:#FFFFFF;" width="3.671" height="8.658"/>
		
			<rect x="414.952" y="334.182" transform="matrix(0.481 -0.8767 0.8767 0.481 -80.4589 541.1124)" style="fill:#FFFFFF;" width="3.671" height="8.658"/>
		
			<rect x="424.773" y="339.57" transform="matrix(0.481 -0.8767 0.8767 0.481 -80.0835 552.5229)" style="fill:#FFFFFF;" width="3.671" height="8.657"/>
		
			<rect x="434.297" y="344.794" transform="matrix(0.481 -0.8767 0.8767 0.481 -79.7209 563.5842)" style="fill:#FFFFFF;" width="3.671" height="8.657"/>
		
			<rect x="337.807" y="292.17" transform="matrix(0.481 -0.8767 0.8767 0.481 -83.6644 451.6723)" style="fill:#F7F7F7;" width="3.672" height="8.656"/>
		
			<rect x="347.332" y="297.395" transform="matrix(0.481 -0.8767 0.8767 0.481 -83.3006 462.7379)" style="fill:#F7F7F7;" width="3.672" height="8.656"/>
		
			<rect x="357.152" y="302.782" transform="matrix(0.481 -0.8767 0.8767 0.481 -82.9267 474.1437)" style="fill:#F7F7F7;" width="3.672" height="8.656"/>
		
			<rect x="366.676" y="308.006" transform="matrix(0.481 -0.8767 0.8767 0.481 -82.5652 485.2024)" style="fill:#F7F7F7;" width="3.672" height="8.658"/>
		
			<rect x="376.282" y="313.276" transform="matrix(0.481 -0.8767 0.8767 0.481 -82.199 496.3607)" style="fill:#F7F7F7;" width="3.672" height="8.657"/>
		
			<rect x="385.805" y="318.499" transform="matrix(0.481 -0.8767 0.8767 0.481 -81.8372 507.42)" style="fill:#F7F7F7;" width="3.672" height="8.658"/>
		
			<rect x="395.626" y="323.887" transform="matrix(0.481 -0.8767 0.8767 0.481 -81.4608 518.833)" style="fill:#F7F7F7;" width="3.672" height="8.658"/>
		
			<rect x="405.15" y="329.112" transform="matrix(0.481 -0.8767 0.8767 0.481 -81.1013 529.8872)" style="fill:#F7F7F7;" width="3.672" height="8.658"/>
		
			<rect x="414.823" y="334.418" transform="matrix(0.481 -0.8767 0.8767 0.481 -80.7309 541.1265)" style="fill:#F7F7F7;" width="3.672" height="8.658"/>
		
			<rect x="424.644" y="339.806" transform="matrix(0.481 -0.8767 0.8767 0.481 -80.3576 552.5319)" style="fill:#F7F7F7;" width="3.672" height="8.657"/>
		
			<rect x="434.167" y="345.03" transform="matrix(0.481 -0.8767 0.8767 0.481 -79.9949 563.5933)" style="fill:#F7F7F7;" width="3.672" height="8.657"/>
		
			<rect x="413.406" y="356.755" transform="matrix(0.481 -0.8767 0.8767 0.481 -100.0455 553.172)" style="fill:#F7F7F7;" width="7.55" height="8.657"/>
		
			<rect x="422.93" y="361.979" transform="matrix(0.481 -0.8767 0.8767 0.481 -99.6809 564.2386)" style="fill:#F7F7F7;" width="7.55" height="8.657"/>
		
			<rect x="403.586" y="351.367" transform="matrix(0.481 -0.8767 0.8767 0.481 -100.4188 541.7667)" style="fill:#F7F7F7;" width="7.55" height="8.658"/>
		
			<rect x="379.463" y="349.993" transform="matrix(0.481 -0.8767 0.8767 0.481 -111.7339 519.9031)" style="fill:#F7F7F7;" width="7.55" height="8.656"/>
		
			<rect x="388.987" y="355.217" transform="matrix(0.481 -0.8767 0.8767 0.481 -111.3704 530.9679)" style="fill:#F7F7F7;" width="7.55" height="8.656"/>
		
			<rect x="360.119" y="339.381" transform="matrix(0.481 -0.8767 0.8767 0.481 -112.4695 497.438)" style="fill:#F7F7F7;" width="7.55" height="8.656"/>
		
			<rect x="369.642" y="344.605" transform="matrix(0.481 -0.8767 0.8767 0.481 -112.1076 508.4973)" style="fill:#F7F7F7;" width="7.55" height="8.658"/>
		
			<rect x="398.659" y="360.523" transform="matrix(0.481 -0.8767 0.8767 0.481 -111.0026 542.2001)" style="fill:#F7F7F7;" width="7.55" height="8.657"/>
		
			<rect x="393.945" y="369.555" transform="matrix(0.481 -0.8767 0.8767 0.481 -121.3667 542.7582)" style="fill:#F7F7F7;" width="7.551" height="8.657"/>
		
			<rect x="403.469" y="374.779" transform="matrix(0.481 -0.8767 0.8767 0.481 -121.0053 553.8168)" style="fill:#F7F7F7;" width="7.551" height="8.658"/>
		
			<rect x="413.142" y="380.085" transform="matrix(0.481 -0.8767 0.8767 0.481 -120.6354 565.056)" style="fill:#F7F7F7;" width="7.551" height="8.658"/>
		
			<rect x="326.232" y="332.409" transform="matrix(0.481 -0.8767 0.8767 0.481 -123.944 464.114)" style="fill:#F7F7F7;" width="7.551" height="8.656"/>
		
			<rect x="316.707" y="327.184" transform="matrix(0.481 -0.8767 0.8767 0.481 -124.308 453.0473)" style="fill:#F7F7F7;" width="7.551" height="8.656"/>
		
			<rect x="331.242" y="312.508" transform="matrix(0.481 -0.8767 0.8767 0.481 -113.5689 463.8988)" style="fill:#F7F7F7;" width="7.55" height="30.72"/>
		
			<rect x="413.168" y="363.051" transform="matrix(0.481 -0.8767 0.8767 0.481 -110.4494 559.0544)" style="fill:#F7F7F7;" width="7.55" height="19.519"/>
		
			<rect x="364.85" y="331.61" transform="matrix(0.481 -0.8767 0.8767 0.481 -122.4748 508.9647)" style="fill:#F7F7F7;" width="7.551" height="52.625"/>
	</g>
	<g>
		<g>
			<g>
				<g>
					<path style="fill:#C7DBFB;" d="M309.43,352.873l-99.872,26.406c-2.312,0.611-4.682-0.767-5.293-3.079l0,0
						c-0.611-2.312,0.767-4.682,3.079-5.293l99.872-26.406c2.312-0.611,4.682,0.767,5.293,3.079l0,0
						C313.121,349.892,311.742,352.261,309.43,352.873z"/>
					<path style="fill:#C7DBFB;" d="M292.61,351.434l-69.142,18.281c11.436-8.293,9.65-19.344,7.222-25.74
						c-1.196-3.155-2.55-5.178-2.55-5.178l38.687-10.229c0.03,2.087,0.212,3.985,0.518,5.716
						C271.001,354.873,292.61,351.434,292.61,351.434z"/>
				</g>
				<path style="fill:#B9CEED;" d="M266.828,328.567c0.03,2.087,0.212,3.985,0.518,5.716l-36.656,9.691
					c-1.196-3.155-2.55-5.178-2.55-5.178L266.828,328.567z"/>
			</g>
			<path style="fill:#C7DBFB;" d="M311.584,161.001l36.171,136.811c1.657,6.267-2.079,12.692-8.346,14.349l-176.033,46.542
				c-6.267,1.657-12.693-2.082-14.35-8.349l-36.172-136.81c-1.657-6.267,2.082-12.69,8.349-14.347l176.032-46.542
				C303.504,150.998,309.927,154.734,311.584,161.001z"/>
			<path style="fill:#474157;" d="M311.584,161.001l32.463,122.785l-198.728,52.542l-32.463-122.785
				c-1.657-6.267,2.082-12.69,8.349-14.347l176.032-46.542C303.504,150.998,309.927,154.734,311.584,161.001z"/>
			<path style="fill:#FFFFFF;" d="M306.391,164.643l29.034,109.813c0.802,3.035-1.005,6.147-4.043,6.95L155.153,328
				c-3.038,0.803-6.147-1.008-6.95-4.043L119.17,214.143c-0.802-3.035,1.005-6.146,4.043-6.95L299.442,160.6
				C302.48,159.797,305.589,161.608,306.391,164.643z"/>
			<path style="fill:#C7DBFB;" d="M306.391,164.643l0.792,2.996l-187.222,49.5l-0.792-2.996c-0.802-3.035,1.005-6.146,4.043-6.95
				L299.442,160.6C302.48,159.797,305.589,161.608,306.391,164.643z"/>
			<path style="fill:#DCDFEA;" d="M134.989,209.313c0.373,1.412-0.469,2.859-1.881,3.233c-1.412,0.373-2.859-0.469-3.233-1.881
				c-0.373-1.412,0.469-2.859,1.881-3.233C133.168,207.059,134.615,207.9,134.989,209.313z"/>
			<path style="fill:#DCDFEA;" d="M142.311,207.377c0.373,1.412-0.469,2.859-1.881,3.233c-1.412,0.373-2.859-0.469-3.233-1.881
				c-0.373-1.412,0.469-2.859,1.881-3.233C140.49,205.123,141.937,205.965,142.311,207.377z"/>
			<path style="fill:#DCDFEA;" d="M149.35,205.516c0.373,1.412-0.469,2.859-1.881,3.233c-1.412,0.373-2.859-0.469-3.233-1.881
				c-0.373-1.412,0.469-2.859,1.881-3.233C147.53,203.261,148.977,204.103,149.35,205.516z"/>
		</g>
		<g>
			<g>
				
					<rect x="145.393" y="208.969" transform="matrix(0.9668 -0.2556 0.2556 0.9668 -53.2939 53.8499)" style="fill:#ECF3FF;" width="70.264" height="45.979"/>
				<path style="fill:#CEE6FC;" d="M212.646,216.002l7.721,29.202l-67.93,17.96l-4.125-15.602
					c7.958-5.287,19.332-10.51,33.512-10.693C196.01,236.684,206.119,226.161,212.646,216.002z"/>
			</g>
			<g>
				
					<rect x="226.221" y="187.598" transform="matrix(0.9668 -0.2556 0.2556 0.9668 -45.1463 73.8005)" style="fill:#ECF3FF;" width="70.264" height="45.979"/>
				<path style="fill:#CEE6FC;" d="M286.003,189.246l-55.618,14.705c-1.081,0.286-2.188-0.359-2.474-1.439l0,0
					c-0.286-1.081,0.359-2.188,1.439-2.474l55.618-14.705c1.081-0.286,2.188,0.359,2.474,1.439l0,0
					C287.728,187.853,287.084,188.961,286.003,189.246z"/>
				<path style="fill:#CEE6FC;" d="M286.923,222.668l-48.218,12.749c-1.081,0.286-2.188-0.359-2.474-1.439v0
					c-0.286-1.08,0.359-2.188,1.439-2.474l48.218-12.748c1.081-0.286,2.188,0.359,2.474,1.439l0,0
					C288.648,221.275,288.004,222.382,286.923,222.668z"/>
				<path style="fill:#CEE6FC;" d="M288.774,201.62l-34.379,9.089c-0.914,0.242-1.851-0.303-2.092-1.217l0,0
					c-0.242-0.914,0.303-1.851,1.217-2.092l34.379-9.089c0.914-0.242,1.851,0.303,2.092,1.217l0,0
					C290.233,200.442,289.688,201.378,288.774,201.62z"/>
				<path style="fill:#CEE6FC;" d="M290.646,208.701l-34.379,9.089c-0.914,0.242-1.851-0.303-2.092-1.217l0,0
					c-0.242-0.914,0.303-1.851,1.217-2.092l34.379-9.089c0.914-0.242,1.851,0.303,2.092,1.217l0,0
					C292.105,207.522,291.56,208.459,290.646,208.701z"/>
				<path style="fill:#FFD23C;" d="M251.226,213.266c1.341,5.071-1.683,10.269-6.754,11.609c-5.071,1.341-10.268-1.683-11.609-6.754
					c-1.341-5.071,1.683-10.269,6.754-11.609C244.688,205.171,249.885,208.195,251.226,213.266z"/>
			</g>
			<g>
				
					<rect x="159.876" y="263.746" transform="matrix(0.9668 -0.2556 0.2556 0.9668 -66.8139 59.3709)" style="fill:#ECF3FF;" width="70.264" height="45.979"/>
				<path style="fill:#CEE6FC;" d="M220.765,269.158l-34.379,9.09c-0.914,0.242-1.851-0.303-2.092-1.217l0,0
					c-0.242-0.914,0.303-1.851,1.217-2.092l34.379-9.09c0.914-0.242,1.851,0.303,2.092,1.217l0,0
					C222.224,267.979,221.679,268.916,220.765,269.158z"/>
				<path style="fill:#CEE6FC;" d="M222.638,276.238l-34.379,9.089c-0.914,0.242-1.851-0.303-2.092-1.217l0,0
					c-0.242-0.914,0.303-1.851,1.217-2.092l34.379-9.09c0.914-0.242,1.851,0.303,2.092,1.217l0,0
					C224.096,275.06,223.551,275.997,222.638,276.238z"/>
				
					<rect x="162.524" y="273.234" transform="matrix(0.9668 -0.2556 0.2556 0.9668 -66.7886 53.6671)" style="fill:#DFE6EF;" width="21.1" height="21.1"/>
				<path style="fill:#CEE6FC;" d="M169.887,306.307l34.379-9.089c0.914-0.242,1.851,0.303,2.092,1.217l0,0
					c0.242,0.914-0.303,1.851-1.217,2.092l-34.379,9.089c-0.914,0.242-1.851-0.303-2.092-1.217l0,0
					C168.428,307.486,168.973,306.549,169.887,306.307z"/>
				<path style="fill:#CEE6FC;" d="M168.015,299.227l34.379-9.09c0.914-0.242,1.851,0.303,2.092,1.217l0,0
					c0.242,0.914-0.303,1.851-1.217,2.092l-34.379,9.089c-0.914,0.242-1.851-0.303-2.092-1.217l0,0
					C166.556,300.405,167.101,299.468,168.015,299.227z"/>
				
					<rect x="207.028" y="281.131" transform="matrix(-0.9668 0.2556 -0.2556 -0.9668 502.484 518.0579)" style="fill:#DFE6EF;" width="21.1" height="21.1"/>
			</g>
			<g>
				
					<rect x="241.209" y="242.242" transform="matrix(0.9668 -0.2556 0.2556 0.9668 -58.6155 79.4459)" style="fill:#ECF3FF;" width="70.264" height="45.979"/>
				<polygon style="fill:#CEE6FC;" points="250.567,295.826 261.263,254.909 289.536,285.522 				"/>
				<polygon style="fill:#CEE6FC;" points="275.839,289.144 289.283,258.618 314.808,278.841 				"/>
			</g>
		</g>
	</g>
	<polygon style="fill:#4640CC;" points="353.054,323.878 324.735,314.675 296.414,305.471 305.618,333.791 314.82,362.111 
		324.769,342.741 339.889,357.862 344.028,353.723 344.029,353.723 348.801,348.949 333.681,333.829 	"/>
	<g>
		<path style="fill:#78D2FF;" d="M350.998,191.741c-0.503,1.463,0.195,3.027,1.56,3.496l4.786,1.645l-3.413,9.931l15.143-5.9
			l30.551,10.5c1.367,0.47,2.88-0.334,3.383-1.797l10.329-30.054c0.503-1.463-0.197-3.027-1.564-3.497l-47.066-16.176
			c-1.365-0.469-2.877,0.335-3.38,1.798L350.998,191.741z"/>
		<path style="fill:#FFFFFF;" d="M401.217,185.776l-34.154-11.738c-0.628-0.216-0.961-0.899-0.746-1.527l0,0
			c0.216-0.628,0.899-0.961,1.527-0.746l34.154,11.738c0.628,0.216,0.961,0.899,0.746,1.527l0,0
			C402.528,185.658,401.845,185.992,401.217,185.776z"/>
		<path style="fill:#FFFFFF;" d="M398.742,192.977l-34.153-11.738c-0.628-0.216-0.962-0.9-0.746-1.528l0,0
			c0.216-0.628,0.9-0.962,1.528-0.746l34.153,11.738c0.628,0.216,0.962,0.9,0.746,1.528l0,0
			C400.054,192.858,399.37,193.192,398.742,192.977z"/>
		<path style="fill:#FFFFFF;" d="M388.197,197.402l-26.083-8.964c-0.628-0.216-0.962-0.899-0.746-1.527v0
			c0.216-0.628,0.9-0.962,1.527-0.746l26.083,8.964c0.628,0.216,0.962,0.9,0.746,1.527l0,0
			C389.509,197.283,388.825,197.617,388.197,197.402z"/>
	</g>
	<g>
		<path style="fill:#474157;" d="M212.154,381.517c0,22.573-18.299,40.874-40.874,40.874c-22.573,0-40.875-18.301-40.875-40.874
			c0-22.574,18.302-40.875,40.875-40.875C193.854,340.643,212.154,358.943,212.154,381.517z"/>
		<path style="fill:#FFFFFF;" d="M207.844,381.516c0,20.255-16.419,36.674-36.674,36.674c-20.253,0-36.676-16.419-36.676-36.674
			c0-20.255,16.423-36.676,36.676-36.676C191.425,344.84,207.844,361.261,207.844,381.516z"/>
		<path style="fill:#E5E5E5;" d="M138.423,384.136c0-20.256,16.42-36.676,36.676-36.676c6.681,0,12.935,1.794,18.331,4.915
			c-6.176-4.722-13.889-7.535-22.26-7.535c-20.253,0-36.676,16.421-36.676,36.676c0,13.576,7.385,25.421,18.347,31.76
			C144.078,406.574,138.423,396.018,138.423,384.136z"/>
		<path style="fill:#0E303F;" d="M177.013,382.463c0,3.227-2.613,5.842-5.842,5.842c-3.225,0-5.844-2.615-5.844-5.842
			c0-3.227,2.619-5.844,5.844-5.844C174.4,376.62,177.013,379.236,177.013,382.463z"/>
		<g>
			<g>
				<g>
					<g>
						<path style="fill:#0E303F;" d="M185.083,357.891c-0.081,0-0.162-0.02-0.236-0.064c-0.226-0.13-0.303-0.419-0.172-0.644
							l0.902-1.558c0.131-0.227,0.423-0.303,0.644-0.172c0.226,0.13,0.303,0.419,0.172,0.644l-0.902,1.558
							C185.404,357.807,185.245,357.891,185.083,357.891L185.083,357.891z"/>
					</g>
					<g>
						<path style="fill:#0E303F;" d="M156.352,407.659c-0.08,0-0.161-0.02-0.235-0.063c-0.226-0.13-0.304-0.419-0.174-0.644
							l0.897-1.561c0.13-0.228,0.42-0.303,0.644-0.174c0.226,0.13,0.304,0.418,0.174,0.644l-0.897,1.561
							C156.674,407.574,156.516,407.659,156.352,407.659L156.352,407.659z"/>
					</g>
					<g>
						<path style="fill:#0E303F;" d="M196.828,396.806c-0.08,0-0.161-0.02-0.236-0.063l-1.549-0.893
							c-0.226-0.131-0.303-0.419-0.173-0.645c0.131-0.227,0.418-0.302,0.645-0.173l1.548,0.893c0.226,0.131,0.303,0.419,0.173,0.645
							C197.15,396.721,196.991,396.806,196.828,396.806L196.828,396.806z"/>
					</g>
					<g>
						<path style="fill:#0E303F;" d="M147.078,368.077c-0.08,0-0.16-0.02-0.234-0.063l-1.565-0.896
							c-0.227-0.129-0.305-0.418-0.175-0.643c0.129-0.228,0.418-0.304,0.643-0.175l1.565,0.896c0.227,0.129,0.305,0.418,0.175,0.643
							C147.4,367.992,147.241,368.077,147.078,368.077L147.078,368.077z"/>
					</g>
				</g>
				<g>
					<g>
						<path style="fill:#0E303F;" d="M157.258,357.891c-0.163,0-0.322-0.085-0.409-0.237l-0.894-1.558
							c-0.13-0.226-0.051-0.514,0.174-0.644c0.223-0.129,0.513-0.053,0.644,0.174l0.894,1.558c0.13,0.226,0.052,0.514-0.174,0.644
							C157.42,357.871,157.339,357.891,157.258,357.891L157.258,357.891z"/>
					</g>
					<g>
						<path style="fill:#0E303F;" d="M186.001,407.659c-0.162,0-0.321-0.084-0.408-0.235l-0.908-1.561
							c-0.131-0.225-0.054-0.513,0.172-0.645c0.223-0.131,0.513-0.056,0.645,0.171l0.908,1.561c0.131,0.225,0.054,0.513-0.171,0.645
							C186.163,407.639,186.082,407.659,186.001,407.659L186.001,407.659z"/>
					</g>
					<g>
						<path style="fill:#0E303F;" d="M145.512,396.806c-0.163,0-0.323-0.086-0.41-0.238c-0.129-0.227-0.05-0.515,0.176-0.644
							l1.565-0.893c0.224-0.127,0.514-0.051,0.644,0.176c0.129,0.227,0.05,0.515-0.176,0.644l-1.565,0.893
							C145.673,396.785,145.592,396.806,145.512,396.806L145.512,396.806z"/>
					</g>
					<g>
						<path style="fill:#0E303F;" d="M195.279,368.077c-0.162,0-0.321-0.085-0.408-0.236c-0.131-0.225-0.053-0.514,0.172-0.644
							l1.549-0.896c0.222-0.132,0.513-0.053,0.644,0.172c0.131,0.225,0.053,0.514-0.172,0.644l-1.548,0.896
							C195.441,368.057,195.359,368.077,195.279,368.077L195.279,368.077z"/>
					</g>
				</g>
				<g>
					<g>
						<path style="fill:#0E303F;" d="M143.34,381.99c0,0,0,0-0.001,0l-1.797-0.002c-0.26,0-0.471-0.212-0.471-0.473
							c0-0.26,0.211-0.471,0.472-0.471h0.001l1.797,0.002c0.26,0,0.471,0.212,0.471,0.473
							C143.812,381.779,143.601,381.99,143.34,381.99L143.34,381.99z"/>
					</g>
					<g>
						<path style="fill:#0E303F;" d="M199.004,381.99c-0.26,0-0.471-0.21-0.472-0.47c-0.001-0.261,0.21-0.473,0.47-0.474
							l1.808-0.006h0.002c0.26,0,0.471,0.21,0.472,0.47c0.001,0.261-0.21,0.473-0.47,0.474l-1.809,0.006H199.004L199.004,381.99z"/>
					</g>
					<g>
						<path style="fill:#0E303F;" d="M171.167,411.624h-0.003c-0.261-0.002-0.471-0.214-0.469-0.475l0.01-1.805
							c0.002-0.26,0.213-0.469,0.472-0.469h0.003c0.261,0.002,0.471,0.214,0.469,0.475l-0.01,1.805
							C171.637,411.415,171.426,411.624,171.167,411.624L171.167,411.624z"/>
					</g>
					<g>
						<path style="fill:#0E303F;" d="M171.171,354.157c-0.261,0-0.472-0.211-0.472-0.472v-1.791c0-0.261,0.211-0.472,0.472-0.472
							s0.472,0.211,0.472,0.472v1.791C171.643,353.946,171.431,354.157,171.171,354.157L171.171,354.157z"/>
					</g>
				</g>
			</g>
			<g>
				<g>
					<path style="fill:#0E303F;" d="M172.547,382.808c-0.781-0.361-1.122-1.286-0.76-2.068l9.729-21.051
						c0.361-0.781,1.286-1.122,2.068-0.76c0.782,0.361,1.122,1.286,0.761,2.068l-9.729,21.051
						C174.254,382.829,173.329,383.169,172.547,382.808L172.547,382.808z"/>
				</g>
			</g>
		</g>
		<path style="fill:#0E303F;" d="M152.053,382.128L152.053,382.128c0.053-1.386,1.219-2.466,2.605-2.413l12.546,0.478
			c1.386,0.053,2.466,1.219,2.414,2.605v0c-0.053,1.386-1.219,2.466-2.605,2.413l-12.546-0.478
			C153.081,384.68,152,383.513,152.053,382.128z"/>
	</g>
	<g>
		
			<rect x="236.338" y="402.402" transform="matrix(0.3715 -0.9284 0.9284 0.3715 -227.1609 483.1661)" style="fill:#DADDDF;" width="13.947" height="13.947"/>
		
			<rect x="241.193" y="409.576" transform="matrix(0.3715 -0.9284 0.9284 0.3715 -225.9135 488.8954)" style="fill:#B6B8BA;" width="13.947" height="3.487"/>
		<path style="fill:#C7DBFB;" d="M240.723,397.073l-7.773,19.423l-31.924-12.776c-0.977-0.391-1.759-1.154-2.173-2.122l0,0
			c-0.414-0.967-0.428-2.06-0.036-3.037l4.824-12.055c0.391-0.977,1.154-1.759,2.122-2.173l0,0c0.967-0.414,2.06-0.428,3.037-0.037
			L240.723,397.073z"/>
		
			<rect x="238.605" y="409.581" transform="matrix(0.3716 -0.9284 0.9284 0.3716 -230.8722 480.4121)" style="fill:#B6B8BA;" width="1.643" height="2.325"/>
		
			<rect x="240.332" y="405.264" transform="matrix(0.3715 -0.9284 0.9284 0.3715 -225.7777 479.3152)" style="fill:#B6B8BA;" width="1.643" height="2.325"/>
	</g>
</g>
<g id="DESIGNED_BY_FREEPIK">
	<g>
		<g id="XMLID_29_">
			<g id="XMLID_48_">
				<path id="XMLID_56_" style="fill:#A5B7C6;" d="M260.104,472.542c-0.432,0.443-0.803,0.931-1.108,1.453l-0.465-0.241
					c-0.067-0.298-0.349-0.503-0.659-0.466c-0.331,0.039-0.568,0.339-0.529,0.67c0.039,0.331,0.339,0.568,0.67,0.529
					c0.065-0.008,0.127-0.026,0.184-0.052l0.451,0.234c-0.251,0.554-0.433,1.139-0.539,1.744l0.747,0.132
					c0.23-1.306,0.85-2.507,1.792-3.472L260.104,472.542z"/>
				<path id="XMLID_55_" style="fill:#A5B7C6;" d="M265.592,470.24c-0.171,0-0.341,0.006-0.51,0.017l-0.074-0.626
					c0.188-0.149,0.296-0.389,0.266-0.645c-0.046-0.393-0.402-0.674-0.795-0.628c-0.393,0.046-0.674,0.402-0.628,0.795
					c0.03,0.254,0.189,0.461,0.405,0.564l0.073,0.624c-0.714,0.116-1.403,0.332-2.06,0.646l0.327,0.684
					c0.934-0.447,1.942-0.673,2.995-0.673c0.496,0,0.993,0.053,1.475,0.158l0.161-0.741
					C266.692,470.298,266.142,470.24,265.592,470.24z"/>
				<path id="XMLID_54_" style="fill:#A5B7C6;" d="M272.194,472.787c0.331-0.04,0.566-0.341,0.526-0.672
					c-0.04-0.331-0.341-0.566-0.672-0.526c-0.309,0.038-0.535,0.304-0.53,0.609l-0.416,0.363c-0.418-0.43-0.89-0.813-1.408-1.139
					l-0.404,0.641c1.134,0.715,2.021,1.726,2.563,2.925l0.69-0.313c-0.251-0.554-0.567-1.072-0.942-1.545l0.402-0.351
					C272.065,472.792,272.129,472.795,272.194,472.787z"/>
				<path id="XMLID_53_" style="fill:#A5B7C6;" d="M265.044,480.448c-0.386,0.023-0.775,0.035-1.157,0.035
					c-0.88,0-1.733-0.061-2.478-0.179c-0.39-0.062-0.846-0.155-1.27-0.292c1.046,1.861,3.069,3.125,5.388,3.125
					c2.855,0,5.262-1.916,5.95-4.504c-0.682,0.449-1.505,0.825-2.459,1.123C267.839,480.123,266.463,480.363,265.044,480.448z"/>
				<path id="XMLID_49_" style="fill:#A5B7C6;" d="M265.592,471.756c-3.352,0-6.08,2.666-6.08,5.944
					c0,0.425,0.046,0.849,0.137,1.261c0.673,0.483,2.706,0.89,5.348,0.731c2.879-0.173,5.297-0.957,6.672-2.158
					c-0.005-0.195-0.021-0.39-0.045-0.582C271.244,473.989,268.65,471.756,265.592,471.756z M263.432,478.271
					c-1.02,0-1.85-0.83-1.85-1.85c0-1.02,0.83-1.85,1.85-1.85c1.02,0,1.85,0.83,1.85,1.85
					C265.282,477.441,264.452,478.271,263.432,478.271z M268.17,477.362c-0.75,0-1.36-0.61-1.36-1.36s0.61-1.361,1.36-1.361
					c0.75,0,1.361,0.61,1.361,1.361S268.92,477.362,268.17,477.362z"/>
			</g>
			<path id="XMLID_46_" style="fill:#A5B7C6;" d="M281.595,473.623c-0.295-0.116-0.805-0.309-1.382-0.237
				c-0.551,0.068-0.844,0.34-0.844,1.007v0.866h2.228v1.717h-2.228v5.455h-1.932v-5.455h-1.34v-1.717h1.34v-0.888
				c0-1.68,0.896-2.783,2.568-2.783c0.643,0,1.157,0.122,1.59,0.308L281.595,473.623z"/>
			<path id="XMLID_44_" style="fill:#A5B7C6;" d="M286.298,476.955c-0.177-0.03-0.358-0.046-0.526-0.046
				c-0.896,0-1.51,0.548-1.51,1.613v3.908h-1.932v-7.172h1.873v0.785c0.451-0.673,1.14-0.977,2.021-0.977
				c0.414,0,0.848,0.128,1.094,0.337L286.298,476.955z"/>
			<path id="XMLID_41_" style="fill:#A5B7C6;" d="M293.965,478.833c0,0.222-0.015,0.489-0.037,0.651h-5.085
				c0.207,1.036,0.933,1.488,1.843,1.488c0.622,0,1.295-0.252,1.813-0.688l1.133,1.243c-0.814,0.748-1.85,1.088-3.057,1.088
				c-2.198,0-3.723-1.495-3.723-3.753c0-2.258,1.48-3.797,3.626-3.797C292.544,475.066,293.958,476.598,293.965,478.833z
				 M288.851,478.167h3.175c-0.177-0.918-0.733-1.436-1.562-1.436C289.554,476.731,289.021,477.279,288.851,478.167z"/>
			<path id="XMLID_38_" style="fill:#A5B7C6;" d="M301.618,478.833c0,0.222-0.015,0.489-0.037,0.651h-5.085
				c0.207,1.036,0.933,1.488,1.843,1.488c0.622,0,1.295-0.252,1.813-0.688l1.132,1.243c-0.814,0.748-1.85,1.088-3.057,1.088
				c-2.198,0-3.723-1.495-3.723-3.753c0-2.258,1.48-3.797,3.627-3.797C300.197,475.066,301.611,476.598,301.618,478.833z
				 M296.504,478.167h3.175c-0.178-0.918-0.733-1.436-1.562-1.436C297.207,476.731,296.674,477.279,296.504,478.167z"/>
			<path id="XMLID_35_" style="fill:#A5B7C6;" d="M309.964,478.841c0,2.154-1.495,3.775-3.471,3.775
				c-0.962,0-1.643-0.378-2.109-0.933v3.708h-1.924v-10.133h1.887v0.792c0.466-0.585,1.155-0.984,2.139-0.984
				C308.469,475.066,309.964,476.687,309.964,478.841z M304.287,478.841c0,1.132,0.748,1.976,1.843,1.976
				c1.14,0,1.85-0.881,1.85-1.976c0-1.095-0.71-1.976-1.85-1.976C305.035,476.864,304.287,477.708,304.287,478.841z"/>
			<path id="XMLID_32_" style="fill:#A5B7C6;" d="M313.068,472.912c0,0.696-0.54,1.229-1.236,1.229
				c-0.696,0-1.229-0.533-1.229-1.229c0-0.696,0.533-1.243,1.229-1.243C312.527,471.669,313.068,472.216,313.068,472.912z
				 M312.809,482.43h-1.932v-7.172h1.932V482.43z"/>
			<path id="XMLID_30_" style="fill:#A5B7C6;" d="M316.032,477.812l2.701-2.554h2.368l-3.479,3.375l3.501,3.797h-2.376l-2.716-2.901
				v2.901H314.1v-10.658h1.932V477.812z"/>
		</g>
		<g>
			<path style="fill:#A5B7C6;" d="M184.412,482.365v-1.055c-0.527,0.718-1.391,1.23-2.387,1.23c-1.846,0-3.149-1.406-3.149-3.706
				c0-2.256,1.289-3.721,3.149-3.721c0.952,0,1.816,0.469,2.387,1.245v-3.765h1.099v9.77H184.412z M184.412,480.446v-3.208
				c-0.395-0.615-1.245-1.143-2.124-1.143c-1.421,0-2.27,1.172-2.27,2.739c0,1.567,0.85,2.724,2.27,2.724
				C183.168,481.56,184.017,481.062,184.412,480.446z"/>
			<path style="fill:#A5B7C6;" d="M186.932,478.821c0-2.051,1.465-3.706,3.486-3.706c2.139,0,3.398,1.67,3.398,3.794v0.279h-5.727
				c0.088,1.333,1.025,2.446,2.549,2.446c0.805,0,1.626-0.322,2.182-0.893l0.527,0.718c-0.703,0.703-1.655,1.084-2.812,1.084
				C188.44,482.541,186.932,481.032,186.932,478.821z M190.403,476.023c-1.509,0-2.256,1.274-2.314,2.358h4.643
				C192.718,477.326,192.015,476.023,190.403,476.023z"/>
			<path style="fill:#A5B7C6;" d="M194.607,481.428l0.571-0.791c0.469,0.542,1.362,1.011,2.329,1.011c1.084,0,1.67-0.513,1.67-1.216
				c0-1.714-4.38-0.659-4.38-3.281c0-1.098,0.952-2.036,2.636-2.036c1.201,0,2.051,0.454,2.622,1.026l-0.513,0.762
				c-0.424-0.513-1.201-0.894-2.109-0.894c-0.967,0-1.567,0.483-1.567,1.113c0,1.552,4.38,0.527,4.38,3.281
				c0,1.187-0.952,2.138-2.783,2.138C196.306,482.541,195.325,482.19,194.607,481.428z"/>
			<path style="fill:#A5B7C6;" d="M201.477,473.547c0-0.41,0.337-0.747,0.732-0.747c0.41,0,0.747,0.337,0.747,0.747
				c0,0.41-0.337,0.732-0.747,0.732C201.814,474.28,201.477,473.957,201.477,473.547z M201.667,482.365v-7.075h1.099v7.075H201.667z
				"/>
			<path style="fill:#A5B7C6;" d="M204.582,484.182l0.556-0.82c0.586,0.703,1.289,0.967,2.3,0.967c1.172,0,2.27-0.571,2.27-2.124
				v-1.011c-0.513,0.718-1.377,1.26-2.373,1.26c-1.845,0-3.149-1.377-3.149-3.662c0-2.27,1.289-3.677,3.149-3.677
				c0.952,0,1.802,0.469,2.373,1.245v-1.069h1.098v6.87c0,2.344-1.641,3.076-3.369,3.076
				C206.237,485.236,205.417,485.002,204.582,484.182z M209.709,480.329v-3.091c-0.381-0.615-1.23-1.143-2.109-1.143
				c-1.421,0-2.27,1.128-2.27,2.695c0,1.553,0.849,2.695,2.27,2.695C208.478,481.486,209.328,480.945,209.709,480.329z"/>
			<path style="fill:#A5B7C6;" d="M217.413,482.365v-4.629c0-1.245-0.63-1.641-1.582-1.641c-0.865,0-1.685,0.527-2.095,1.099v5.17
				h-1.099v-7.075h1.099v1.025c0.498-0.586,1.464-1.201,2.519-1.201c1.48,0,2.256,0.747,2.256,2.285v4.966H217.413z"/>
			<path style="fill:#A5B7C6;" d="M219.932,478.821c0-2.051,1.465-3.706,3.486-3.706c2.139,0,3.398,1.67,3.398,3.794v0.279h-5.727
				c0.088,1.333,1.025,2.446,2.549,2.446c0.806,0,1.626-0.322,2.183-0.893l0.527,0.718c-0.703,0.703-1.655,1.084-2.812,1.084
				C221.441,482.541,219.932,481.032,219.932,478.821z M223.404,476.023c-1.509,0-2.256,1.274-2.314,2.358h4.643
				C225.718,477.326,225.015,476.023,223.404,476.023z"/>
			<path style="fill:#A5B7C6;" d="M233.35,482.365v-1.055c-0.527,0.718-1.392,1.23-2.388,1.23c-1.846,0-3.149-1.406-3.149-3.706
				c0-2.256,1.289-3.721,3.149-3.721c0.952,0,1.817,0.469,2.388,1.245v-3.765h1.098v9.77H233.35z M233.35,480.446v-3.208
				c-0.396-0.615-1.245-1.143-2.124-1.143c-1.421,0-2.27,1.172-2.27,2.739c0,1.567,0.849,2.724,2.27,2.724
				C232.105,481.56,232.954,481.062,233.35,480.446z"/>
			<path style="fill:#A5B7C6;" d="M239.692,482.365v-9.77h1.098v3.765c0.572-0.776,1.421-1.245,2.388-1.245
				c1.845,0,3.149,1.465,3.149,3.721c0,2.299-1.304,3.706-3.149,3.706c-0.996,0-1.86-0.513-2.388-1.23v1.055H239.692z M242.9,481.56
				c1.436,0,2.285-1.157,2.285-2.724c0-1.568-0.85-2.739-2.285-2.739c-0.864,0-1.728,0.527-2.109,1.143v3.208
				C241.171,481.062,242.036,481.56,242.9,481.56z"/>
			<path style="fill:#A5B7C6;" d="M247.528,484.138c0.161,0.073,0.425,0.117,0.601,0.117c0.483,0,0.805-0.161,1.055-0.747
				l0.469-1.069l-2.959-7.148h1.187l2.358,5.801l2.344-5.801h1.201l-3.545,8.51c-0.425,1.025-1.143,1.421-2.08,1.435
				c-0.234,0-0.601-0.044-0.805-0.103L247.528,484.138z"/>
		</g>
	</g>
</g>
</svg>
