<?xml version="1.0" encoding="utf-8"?>
<!-- Generator: Adobe Illustrator 27.5.0, SVG Export Plug-In . SVG Version: 6.00 Build 0)  -->
<svg version="1.1" xmlns="http://www.w3.org/2000/svg" xmlns:xlink="http://www.w3.org/1999/xlink" x="0px" y="0px"
	 viewBox="0 0 500 500" style="enable-background:new 0 0 500 500;" xml:space="preserve">
<g id="BACKGROUND">
	<rect style="fill:#D7DBFD;" width="500" height="500"/>
</g>
<g id="OBJECTS">
	<g>
		<path style="fill:#23276E;" d="M420.267,183.755c6.616,3.756,9.154,11.997,5.855,18.852c-1.064,2.212-2.147,4.188-3.096,5.389
			c-2.074,2.627-130.003,221.392-130.003,221.392c-2.614,4.236-7.958,5.886-12.506,3.863l-195.2-82.801
			c-5.045-2.004-8.668-6.509-9.541-11.867l-4.356-27.388l290.635-160.483L420.267,183.755z"/>
		<polygon style="opacity:0.5;fill:#23276E;" points="166.129,370.087 184.64,362.882 179.917,344.086 164.183,347.772 		"/>
		<path style="fill:#666EB2;" d="M433.444,146.639l0.86,18.472l-6.69,10.995c2.217,5.542-4.986,13.745-8.311,17.957
			c-2.074,2.627-1.906,6.72-1.486,9.428c0.299,1.928-0.097,3.893-1.122,5.553L289.3,415.454c-2.614,4.236-7.958,5.887-12.506,3.863
			l-88.718-39.475v-4.823c0-1.383-0.808-2.638-2.067-3.21l-17.056-7.753c-1.323-0.601-2.824,0.366-2.824,1.819v4.214l-84.535-33.571
			c-5.045-2.004-8.668-6.51-9.541-11.867l-4.356-27.388L433.444,146.639z"/>
		<g style="opacity:0.5;">
			<path style="fill:#666EB2;" d="M281.948,403.913v16.197c2.948-0.333,5.697-1.974,7.352-4.656l127.396-206.411
				c1.025-1.66,1.421-3.625,1.122-5.553c-0.42-2.709-0.588-6.801,1.486-9.428c3.325-4.212,10.528-12.415,8.311-17.957
				L281.948,403.913z"/>
		</g>
		<path style="fill:#A4ACDD;" d="M235.228,70.473l195.6,73.563c2.649,0.996,3.737,4.157,2.263,6.573l-146.89,240.76
			c-1.166,1.911-3.558,2.678-5.618,1.802L74.02,305.265c-1.996-0.849-3.105-2.999-2.64-5.117l1.22-5.565
			c0.13-0.591,0.377-1.15,0.727-1.644L229.96,72.086C231.145,70.414,233.309,69.751,235.228,70.473z"/>
		<g>
			<path style="opacity:0.5;fill:#666EB2;" d="M76.562,303.256c0.023,0.69-0.011,1.479-0.539,1.923
				c-0.674,0.566-1.705,0.219-2.452-0.247c-1.004-0.627-1.96-1.548-2.075-2.727c-0.144-1.486,2.014-5.231,3.737-4.863
				C77.149,297.751,76.515,301.865,76.562,303.256z"/>
			<path style="fill:#FFFFFF;" d="M75.899,297.595c-1.14-1.609-2.647-2.957-4.373-3.909c-0.458-0.253-0.961-0.484-1.482-0.441
				c-0.499,0.042-0.944,0.332-1.313,0.672c-0.795,0.732-1.347,1.828-1.127,2.886c0.18,0.866,0.828,1.549,1.473,2.154
				c0.945,0.888,1.944,1.719,2.989,2.487C73.883,300.803,74.794,299.173,75.899,297.595z"/>
		</g>
		<path style="fill:#23276E;" d="M235.95,77.22l187.422,70.487c2.538,0.954,3.581,3.983,2.169,6.298L284.793,384.7
			c-1.117,1.832-3.409,2.566-5.383,1.726l-197.928-84.23c-1.912-0.814-2.975-2.873-2.53-4.903l1.169-5.332
			c0.124-0.566,0.361-1.102,0.697-1.575l150.085-211.62C232.039,77.164,234.112,76.529,235.95,77.22z"/>
		<g style="opacity:0.5;">
			<path style="fill:#A4ACDD;" d="M107.628,252.583l-26.811,37.803c-0.335,0.473-0.572,1.009-0.697,1.575l-1.169,5.332
				c-0.445,2.03,0.618,4.09,2.53,4.903l47.377,20.162c-6.845-6.795-12.668-14.459-16.437-23.308
				C106.241,284.534,106.19,268.486,107.628,252.583z"/>
		</g>
		<g style="opacity:0.5;">
			<path style="fill:#23276E;" d="M423.373,147.707L235.95,77.22c-1.838-0.691-3.912-0.057-5.048,1.545l-87.119,122.838
				c11.929-2.215,23.372-5.741,29.4-15.313c11.971-19.008,24.781-37.487,38.382-55.366c6.159-8.096,13.42-16.648,23.458-18.298
				c4.278-0.703,8.656-0.048,12.913,0.776c33.404,6.467,63.83,23.103,93.637,39.511c11.003,6.056,19.963,15.336,26.794,25.875
				c4.137,6.382,7.536,13.483,13.383,18.346c-1.608,1.243-0.826,3.736-0.449,5.733c0.759,4.015-0.826,8.068-2.462,11.813
				c-8.518,19.5-19.258,37.948-30.508,56.01c-3.837,6.161-7.791,12.405-9.671,19.415c-0.744,2.773-1.139,5.614-1.329,8.479
				l88.21-144.58C426.954,151.69,425.911,148.662,423.373,147.707z"/>
		</g>
		<g>
			<path style="fill:#D1945D;" d="M360.254,249.983c-2.197,1.43-5.019,1.683-7.574,1.098c-0.661-0.152-1.343-0.376-1.801-0.876
				c-0.295-0.323-0.472-0.735-0.63-1.143c-0.687-1.768-1.136-3.707-0.728-5.559c1.03-4.672,8.28-8.594,12.799-6.619
				C367.586,239.186,363.713,247.73,360.254,249.983z"/>
			<path style="opacity:0.5;fill:#D1945D;" d="M360.254,249.983c-2.197,1.43-5.019,1.683-7.574,1.098
				c-0.661-0.152-1.343-0.376-1.801-0.876c-0.295-0.323-0.472-0.735-0.63-1.143c-0.687-1.768-1.136-3.707-0.728-5.559
				c1.03-4.672,8.28-8.594,12.799-6.619C367.586,239.186,363.713,247.73,360.254,249.983z"/>
		</g>
		<path style="fill:none;stroke:#1D1D1B;stroke-linecap:round;stroke-linejoin:round;stroke-miterlimit:10;" d="M339.604,133.588
			c0,0.933-0.978,1.689-2.185,1.689c-1.207,0-2.186-0.756-2.186-1.689c0-0.933,0.978-1.689,2.186-1.689
			C338.626,131.899,339.604,132.655,339.604,133.588z"/>
		
			<line style="fill:none;stroke:#A4ACDD;stroke-linecap:round;stroke-linejoin:round;stroke-miterlimit:10;" x1="120.163" y1="325.641" x2="122.392" y2="352.924"/>
		
			<line style="fill:none;stroke:#A4ACDD;stroke-linecap:round;stroke-linejoin:round;stroke-miterlimit:10;" x1="231.079" y1="372.63" x2="233.308" y2="399.913"/>
		<g style="opacity:0.5;">
			<path style="fill:#A4ACDD;" d="M188.815,141.454c3.237-4.308,6.475-8.615,9.712-12.923c7.32-9.74,14.668-19.513,23.23-28.18
				c3.48-3.523,7.69-7.07,12.64-6.958c3.951,0.09,7.622,0.306,11.49,1.114c7.011,1.464,13.818,3.756,20.594,6.076
				c27.346,9.366,51.729,17.66,81.643,29.222c0.9,0.348,9.094-1.722,16.671-4.128L235.95,77.22
				c-1.838-0.691-3.912-0.057-5.048,1.545l-63.637,89.728c1.719-0.237,3.428-0.628,4.986-0.968
				C176.355,158.055,182.614,149.705,188.815,141.454z"/>
		</g>
		<g>
			<path style="fill:#919191;" d="M243.707,84.971c0,2.794-2.931,5.059-6.545,5.059c-3.615,0-6.546-2.265-6.546-5.059
				c0-8.028,2.931-5.059,6.546-5.059C240.776,79.912,243.707,76.817,243.707,84.971z"/>
			<path style="opacity:0.5;fill:#919191;" d="M243.707,83.282c0,2.794-2.931,5.059-6.545,5.059c-3.615,0-6.546-2.265-6.546-5.059
				s2.931-5.059,6.546-5.059C240.776,78.223,243.707,80.488,243.707,83.282z"/>
			<path style="fill:#919191;" d="M243.707,81.876c0,2.794-2.931,5.059-6.545,5.059c-3.615,0-6.546-2.265-6.546-5.059
				s2.931-5.059,6.546-5.059C240.776,76.817,243.707,79.082,243.707,81.876z"/>
			<path style="fill:#D8D8D8;" d="M241.165,81.876c0,1.709-1.793,3.095-4.004,3.095c-2.212,0-4.004-1.386-4.004-3.095
				s1.793-3.095,4.004-3.095C239.373,78.781,241.165,80.167,241.165,81.876z"/>
			<g>
				
					<line style="fill:none;stroke:#919191;stroke-linecap:round;stroke-linejoin:round;stroke-miterlimit:10;" x1="234.893" y1="81.876" x2="239.922" y2="81.876"/>
				
					<line style="fill:none;stroke:#919191;stroke-linecap:round;stroke-linejoin:round;stroke-miterlimit:10;" x1="237.161" y1="79.912" x2="237.161" y2="84.16"/>
			</g>
		</g>
		<g>
			<g style="opacity:0.5;">
				<path style="fill:#A4ACDD;" d="M235.024,112.626c-4.982,0.819-9.279,3.34-13.098,6.661c10.458,3.545,20.578,8.084,30.166,13.562
					c4.677,2.672,9.524,5.913,11.414,10.957c0.751,2.003,0.975,4.161,1.528,6.228c2.338,8.732,10.568,15.04,19.391,17.007
					c8.823,1.967,18.099,0.192,26.592-2.904c9.079-3.31,17.595-8.145,25.113-14.216c-28.074-15.4-56.82-30.444-88.193-36.518
					C243.681,112.579,239.302,111.923,235.024,112.626z"/>
			</g>
			<g>
				<ellipse style="fill:#919191;" cx="281.948" cy="144.675" rx="6.545" ry="5.059"/>
				<ellipse style="opacity:0.5;fill:#919191;" cx="281.948" cy="142.986" rx="6.545" ry="5.059"/>
				<path style="fill:#919191;" d="M288.493,141.581c0,2.794-2.931,5.059-6.545,5.059c-3.615,0-6.545-2.265-6.545-5.059
					c0-2.794,2.931-5.059,6.545-5.059C285.563,136.521,288.493,138.786,288.493,141.581z"/>
				<path style="fill:#D8D8D8;" d="M285.952,141.581c0,1.709-1.793,3.095-4.004,3.095c-2.211,0-4.004-1.386-4.004-3.095
					c0-1.709,1.793-3.095,4.004-3.095C284.159,138.486,285.952,139.871,285.952,141.581z"/>
				<g>
					
						<line style="fill:none;stroke:#919191;stroke-linecap:round;stroke-linejoin:round;stroke-miterlimit:10;" x1="279.68" y1="141.581" x2="284.709" y2="141.581"/>
					
						<line style="fill:none;stroke:#919191;stroke-linecap:round;stroke-linejoin:round;stroke-miterlimit:10;" x1="281.948" y1="139.616" x2="281.948" y2="143.864"/>
				</g>
			</g>
		</g>
		<g>
			<ellipse style="fill:#919191;" cx="97.018" cy="293.959" rx="6.545" ry="5.059"/>
			<ellipse style="opacity:0.5;fill:#919191;" cx="97.018" cy="292.27" rx="6.545" ry="5.059"/>
			<path style="fill:#919191;" d="M103.563,290.864c0,2.794-2.93,5.059-6.545,5.059c-3.615,0-6.545-2.265-6.545-5.059
				c0-2.794,2.931-5.059,6.545-5.059C100.633,285.805,103.563,288.07,103.563,290.864z"/>
			<path style="fill:#D8D8D8;" d="M101.022,290.864c0,1.709-1.793,3.095-4.004,3.095c-2.212,0-4.004-1.386-4.004-3.095
				c0-1.709,1.793-3.095,4.004-3.095C99.23,287.769,101.022,289.155,101.022,290.864z"/>
			<g>
				
					<line style="fill:none;stroke:#919191;stroke-linecap:round;stroke-linejoin:round;stroke-miterlimit:10;" x1="94.75" y1="290.864" x2="99.779" y2="290.864"/>
				
					<line style="fill:none;stroke:#919191;stroke-linecap:round;stroke-linejoin:round;stroke-miterlimit:10;" x1="97.018" y1="288.9" x2="97.018" y2="293.148"/>
			</g>
		</g>
		<g style="opacity:0.5;">
			<path style="fill:#A4ACDD;" d="M294.984,361.152c-3.244,2.772-7.499,4.71-11.72,4.084c-1.485-0.22-2.913-0.75-4.246-1.441
				c-2.944-1.528-5.134-3.73-6.623-6.695c-0.386,3.068,1.171,6.156,3.49,8.2c0.679,0.598,1.506,1.35,1.279,2.226
				c-0.524,0.264-1.361,0.33-1.948,0.344c-7.903,0.184-15.806,0.368-23.71,0.551c-2.051,0.048-4.106,0.095-6.15-0.07
				c-2.757-0.223-5.468-0.83-8.159-1.473c-3.247-0.777-6.484-1.613-9.693-2.54l51.905,22.089c1.974,0.84,4.266,0.105,5.383-1.726
				l24.641-40.388c-2.129,2.307-4.188,4.676-6.126,7.148C300.675,354.817,298.227,358.379,294.984,361.152z"/>
		</g>
		<g>
			<path style="fill:#23276E;" d="M256.377,90.03c0,1.477-1.549,2.675-3.461,2.675s-3.461-1.198-3.461-2.675
				s1.549-2.675,3.461-2.675S256.377,88.552,256.377,90.03z"/>
			<g>
				<path style="opacity:0.5;fill:#23276E;" d="M252.916,92.705c1.3,0,2.419-0.56,3.01-1.379c-0.607-0.773-1.696-1.296-2.952-1.296
					c-1.3,0-2.419,0.56-3.01,1.38C250.571,92.183,251.66,92.705,252.916,92.705z"/>
			</g>
		</g>
		<g>
			<path style="fill:#23276E;" d="M271.93,94.921c0,1.477-1.55,2.675-3.461,2.675c-1.911,0-3.461-1.198-3.461-2.675
				c0-1.477,1.55-2.675,3.461-2.675C270.381,92.245,271.93,93.443,271.93,94.921z"/>
			<g>
				<path style="opacity:0.5;fill:#23276E;" d="M268.469,97.595c1.3,0,2.419-0.56,3.01-1.379c-0.607-0.773-1.696-1.296-2.952-1.296
					c-1.3,0-2.419,0.56-3.01,1.379C266.124,97.074,267.214,97.595,268.469,97.595z"/>
			</g>
		</g>
		<g>
			<path style="fill:#23276E;" d="M288.441,101.416c0,1.477-1.549,2.675-3.461,2.675c-1.912,0-3.461-1.198-3.461-2.675
				c0-1.477,1.549-2.675,3.461-2.675C286.891,98.741,288.441,99.938,288.441,101.416z"/>
			<g>
				<path style="opacity:0.5;fill:#23276E;" d="M284.98,104.091c1.3,0,2.419-0.56,3.01-1.379c-0.607-0.774-1.696-1.296-2.952-1.296
					c-1.3,0-2.419,0.56-3.01,1.379C282.635,103.569,283.724,104.091,284.98,104.091z"/>
			</g>
		</g>
		<g>
			<path style="fill:#23276E;" d="M404.093,220.858c-1.596-1.057-1.782-3.588-0.415-5.653c1.367-2.065,3.77-2.883,5.366-1.826
				c1.596,1.057,1.782,3.588,0.415,5.653C408.092,221.097,405.689,221.914,404.093,220.858z"/>
			<g>
				<path style="opacity:0.5;fill:#23276E;" d="M403.678,215.204c-0.93,1.404-1.125,3.014-0.663,4.24
					c1.269-0.102,2.613-0.906,3.511-2.263c0.93-1.404,1.125-3.014,0.663-4.24C405.92,213.044,404.577,213.848,403.678,215.204z"/>
			</g>
		</g>
		<g>
			<path style="fill:#23276E;" d="M361.203,289.694c-1.596-1.057-1.782-3.588-0.415-5.653c1.367-2.065,3.77-2.883,5.366-1.826
				c1.596,1.057,1.782,3.588,0.415,5.653C365.201,289.933,362.799,290.75,361.203,289.694z"/>
			<g>
				<path style="opacity:0.5;fill:#23276E;" d="M360.788,284.04c-0.93,1.405-1.125,3.015-0.663,4.24
					c1.27-0.102,2.613-0.906,3.511-2.262c0.93-1.405,1.125-3.014,0.663-4.24C363.029,281.88,361.686,282.684,360.788,284.04z"/>
			</g>
		</g>
		<g>
			<path style="fill:#23276E;" d="M305.003,378.648c-1.596-1.057-1.782-3.588-0.415-5.653c1.367-2.065,3.77-2.883,5.366-1.826
				c1.596,1.057,1.782,3.588,0.415,5.653C309.002,378.887,306.599,379.705,305.003,378.648z"/>
			<g>
				<path style="opacity:0.5;fill:#23276E;" d="M304.588,372.995c-0.93,1.405-1.125,3.014-0.663,4.24
					c1.27-0.102,2.613-0.906,3.511-2.262c0.93-1.405,1.125-3.015,0.663-4.24C306.83,370.835,305.487,371.638,304.588,372.995z"/>
			</g>
		</g>
		<g>
			<g>
				<path style="fill:#666EB2;" d="M288.539,384.894c-0.154-2.389-5.02-3.286-7.009-3.115c-1.989,0.171-5.382,6-5.382,6
					l0.926,31.649c4.089,1.673,8.747,0.437,11.48-2.939C288.59,407.837,288.662,386.788,288.539,384.894z"/>
			</g>
			<g style="opacity:0.5;">
				<path style="fill:#A4ACDD;" d="M288.539,384.894c-0.154-2.389-5.02-3.286-7.009-3.115c-1.989,0.171-5.382,6-5.382,6
					l0.926,31.649c4.089,1.673,8.747,0.437,11.48-2.939C288.59,407.837,288.662,386.788,288.539,384.894z"/>
			</g>
			<g style="opacity:0.7;">
				<path style="fill:#FFFFFF;" d="M285.468,387.539c1.211-0.9,2.098-2.11,2.822-3.441c-1.035-1.793-5.009-2.47-6.759-2.32
					c-1.989,0.171-5.382,6-5.382,6l0.014,0.482c1.114,0.475,2.293,0.788,3.5,0.875C281.707,389.281,283.823,388.762,285.468,387.539
					z"/>
			</g>
		</g>
		<g>
			<g>
				<g>
					<polygon style="fill:#D1945D;" points="214.978,115.948 264.557,135.978 264.557,151.477 214.978,130.786 					"/>
					<polygon style="opacity:0.5;fill:#D1945D;" points="214.978,115.948 264.557,135.978 264.557,151.477 214.978,130.786 					"/>
					<polygon style="fill:#D1945D;" points="214.978,115.948 221.843,112.105 270.261,131.318 264.557,135.978 					"/>
					<polygon style="fill:#D1945D;" points="264.557,151.477 270.261,146.944 270.261,131.318 264.557,135.978 					"/>
					<polygon style="opacity:0.84;fill:#D1945D;" points="264.557,151.477 270.261,146.944 270.261,131.318 264.557,135.978 					
						"/>
				</g>
				<g>
					<polygon style="fill:#D1945D;" points="208.601,127.221 252.916,145.125 252.916,158.978 208.601,140.484 					"/>
					<polygon style="opacity:0.5;fill:#D1945D;" points="208.601,127.221 252.916,145.125 252.916,158.978 208.601,140.484 					"/>
					<polygon style="fill:#D1945D;" points="208.601,127.221 214.737,123.786 258.015,140.959 252.916,145.125 					"/>
					<polygon style="fill:#D1945D;" points="252.916,158.978 258.015,154.926 258.015,140.959 252.916,145.125 					"/>
					<polygon style="opacity:0.84;fill:#D1945D;" points="252.916,158.978 258.015,154.926 258.015,140.959 252.916,145.125 					
						"/>
				</g>
				<g>
					<polygon style="fill:#D1945D;" points="204.167,140.213 236.02,153.082 236.02,163.039 204.167,149.746 					"/>
					<polygon style="opacity:0.5;fill:#D1945D;" points="204.167,140.213 236.02,153.082 236.02,163.039 204.167,149.746 					"/>
					<polygon style="fill:#D1945D;" points="204.167,140.213 208.577,137.744 239.685,150.088 236.02,153.082 					"/>
					<polygon style="fill:#D1945D;" points="236.02,163.039 239.685,160.127 239.685,150.088 236.02,153.082 					"/>
					<polygon style="opacity:0.84;fill:#D1945D;" points="236.02,163.039 239.685,160.127 239.685,150.088 236.02,153.082 					"/>
				</g>
			</g>
			<g>
				<path style="fill:#919191;" d="M206.263,166.083c0,2.794-2.93,5.059-6.546,5.059c-3.615,0-6.545-2.265-6.545-5.059
					c0-8.028,2.93-5.059,6.545-5.059C203.332,161.025,206.263,157.93,206.263,166.083z"/>
				<path style="opacity:0.5;fill:#919191;" d="M206.263,164.394c0,2.794-2.93,5.059-6.546,5.059c-3.615,0-6.545-2.265-6.545-5.059
					c0-2.794,2.93-5.059,6.545-5.059C203.332,159.335,206.263,161.6,206.263,164.394z"/>
				<path style="fill:#919191;" d="M206.263,162.989c0,2.794-2.93,5.059-6.546,5.059c-3.615,0-6.545-2.265-6.545-5.059
					c0-2.794,2.93-5.059,6.545-5.059C203.332,157.93,206.263,160.195,206.263,162.989z"/>
				<path style="fill:#D8D8D8;" d="M203.721,162.989c0,1.709-1.793,3.095-4.004,3.095c-2.211,0-4.004-1.386-4.004-3.095
					s1.793-3.095,4.004-3.095C201.929,159.894,203.721,161.279,203.721,162.989z"/>
				<g>
					
						<line style="fill:none;stroke:#919191;stroke-linecap:round;stroke-linejoin:round;stroke-miterlimit:10;" x1="197.449" y1="162.989" x2="202.479" y2="162.989"/>
					
						<line style="fill:none;stroke:#919191;stroke-linecap:round;stroke-linejoin:round;stroke-miterlimit:10;" x1="199.717" y1="161.025" x2="199.717" y2="165.273"/>
				</g>
			</g>
			<g>
				<path style="fill:#919191;" d="M347.156,205.013h-5.681l-2.188,12.12c0,0.778,2.251,1.408,5.029,1.408
					c2.777,0,5.028-0.631,5.028-1.408L347.156,205.013z"/>
				<path style="fill:#D8D8D8;" d="M347.156,205.013c0,0.778-1.272,1.408-2.841,1.408c-1.569,0-2.841-0.63-2.841-1.408
					c0-0.778,1.272-1.408,2.841-1.408C345.884,203.605,347.156,204.235,347.156,205.013z"/>
			</g>
			<g>
				<g>
					<path style="fill:#D1945D;" d="M236.637,164.939c9.928,2.023,20.161,1.701,30.275,2.321c1.903,0.117,3.912,0.304,5.46,1.418
						c1.733,1.246,2.538,3.399,3.084,5.462c1.072,4.053,1.486,8.435,0.089,12.388c-1.54,4.356-5.182,7.762-9.37,9.714
						c-4.187,1.951-8.887,2.569-13.507,2.563c-3.855-0.005-7.73-0.432-11.421-1.546c-6.628-2.001-16.529-6.42-15.622-14.641
						c0.472-4.283,1.387-8.628,2.056-12.889C228.509,164.452,231.881,163.97,236.637,164.939z"/>
					<g style="opacity:0.5;">
						<path style="fill:#D1945D;" d="M273.436,169.687c-6.015,2.803-12.277,4.972-18.842,4.825
							c-3.658-0.082-7.258-0.888-10.893-1.299c-5.515-0.625-11.08-0.338-16.622,0.091c-0.543,3.1-1.114,6.222-1.455,9.312
							c-0.907,8.221,8.994,12.64,15.622,14.641c3.691,1.114,7.566,1.541,11.421,1.546c4.62,0.006,9.319-0.611,13.507-2.563
							c4.188-1.951,7.83-5.358,9.37-9.714c1.398-3.953,0.983-8.335-0.089-12.388C275.037,172.557,274.462,170.925,273.436,169.687z"
							/>
					</g>
				</g>
				<g>
					<path style="fill:#D1945D;" d="M364.413,237.5c-0.341-2.418-2.692-4.131-4.952-5.055c-2.936-1.201-6.369-1.123-9.247,0.211
						c-0.841,0.39-1.881,0.868-2.616,0.303c-0.251-0.193-0.41-0.479-0.563-0.757c-2.949-5.379-5.899-10.758-8.848-16.137
						c-1.174-2.141-2.443-4.383-4.541-5.631c-1.281-0.762-2.962-0.967-4.351-0.533c-3.767-4.428-7.835-8.615-12.093-12.569
						c-4.146-3.849-9.063-7.728-14.715-7.487c-1.789,0.076-6.341,0.551-6.282,3.045c0.048,2.055,4.954,5.721,6.245,7.33
						c4.773,5.948,7.209,13.369,10.141,20.409c3.633,8.722,8.153,17.074,13.468,24.886c4.393,6.456,9.378,12.637,12.261,19.894
						c1.436,3.615-12.866,19.428-11.146,22.916c0.21,0.425,0.859,2.345,1.291,2.54c0.582,0.263,16.054-13.482,16.592-13.828
						c2.607-1.678,4.053-4.469,4.823-7.535c0.993-1.99,1.46-4.414,1.721-6.641c0.582-4.956,1.288-10.159,1.372-15.149
						C357.262,248.366,365.386,244.405,364.413,237.5z"/>
					<g style="opacity:0.5;">
						<path style="fill:#D1945D;" d="M345.898,252.286c-2.332-15.941-11.076-30.221-20.954-42.948
							c-3.706-4.775-7.681-9.478-12.752-12.766c1.147-0.293,2.317-0.495,3.496-0.61c-3.814-3.346-8.222-6.331-13.201-6.118
							c-1.789,0.076-6.341,0.551-6.282,3.045c0.048,2.055,4.954,5.721,6.245,7.33c4.773,5.948,7.209,13.369,10.141,20.409
							c3.633,8.722,8.153,17.074,13.468,24.886c4.393,6.456,9.378,12.637,12.261,19.894c1.436,3.615-12.866,19.428-11.146,22.916
							c0.21,0.425,0.859,2.345,1.291,2.54c0.563,0.254,15.035-12.577,16.486-13.747C346.528,268.892,347.108,260.56,345.898,252.286
							z"/>
					</g>
					<g>
						<path style="fill:#919191;" d="M363.678,238.808c0,2.794-2.931,5.059-6.545,5.059c-3.615,0-6.546-2.265-6.546-5.059
							c0-8.028,2.931-5.059,6.546-5.059C360.748,233.749,363.678,230.654,363.678,238.808z"/>
						<path style="opacity:0.5;fill:#919191;" d="M363.678,237.119c0,2.794-2.931,5.059-6.545,5.059
							c-3.615,0-6.546-2.265-6.546-5.059c0-2.794,2.931-5.059,6.546-5.059C360.748,232.06,363.678,234.325,363.678,237.119z"/>
						<path style="fill:#919191;" d="M363.678,235.713c0,2.794-2.931,5.059-6.545,5.059c-3.615,0-6.546-2.265-6.546-5.059
							c0-2.794,2.931-5.059,6.546-5.059C360.748,230.654,363.678,232.919,363.678,235.713z"/>
						<path style="fill:#D8D8D8;" d="M361.137,235.713c0,1.709-1.793,3.095-4.004,3.095c-2.212,0-4.004-1.386-4.004-3.095
							c0-1.709,1.793-3.095,4.004-3.095C359.344,232.618,361.137,234.004,361.137,235.713z"/>
						<g>
							
								<line style="fill:none;stroke:#919191;stroke-linecap:round;stroke-linejoin:round;stroke-miterlimit:10;" x1="354.865" y1="235.713" x2="359.894" y2="235.713"/>
							
								<line style="fill:none;stroke:#919191;stroke-linecap:round;stroke-linejoin:round;stroke-miterlimit:10;" x1="357.133" y1="233.749" x2="357.133" y2="237.997"/>
						</g>
					</g>
				</g>
				<g>
					<path style="fill:#D1945D;" d="M311.697,316.971c1.655,3.858,3.343,8.084,2.258,12.14c-1.338,5-6.354,7.958-10.959,10.322
						c-4.013,2.06-7.554,3.718-11.613,5.686c3.626,1.193,6.078,5.217,5.477,8.986c-0.449,2.813-2.415,5.26-4.909,6.636
						c-2.494,1.376-5.457,1.753-8.287,1.427c-0.831-0.095-1.659-0.25-2.446-0.535c-3.174-1.151-5.271-4.324-6.033-7.613
						c-0.763-3.289-1.62-13.53-1.233-16.885C275.704,336.515,300.967,325.969,311.697,316.971z"/>
					<g style="opacity:0.5;">
						<path style="fill:#D1945D;" d="M273.952,337.135c-0.199,1.725-0.068,5.269,0.209,8.754
							c14.265-5.612,28.521-12.001,39.944-21.668c-0.408-2.471-1.412-4.927-2.408-7.249
							C300.967,325.969,275.704,336.515,273.952,337.135z"/>
					</g>
					<g>
						<path style="fill:#919191;" d="M292.876,353.891c0,2.794-2.931,5.059-6.545,5.059c-3.615,0-6.546-2.265-6.546-5.059
							c0-8.028,2.931-5.059,6.546-5.059C289.946,348.832,292.876,345.737,292.876,353.891z"/>
						<path style="opacity:0.5;fill:#919191;" d="M292.876,352.201c0,2.794-2.931,5.059-6.545,5.059
							c-3.615,0-6.546-2.265-6.546-5.059c0-2.794,2.931-5.059,6.546-5.059C289.946,347.142,292.876,349.407,292.876,352.201z"/>
						<path style="fill:#919191;" d="M292.876,350.796c0,2.794-2.931,5.059-6.545,5.059c-3.615,0-6.546-2.265-6.546-5.059
							s2.931-5.059,6.546-5.059C289.946,345.737,292.876,348.002,292.876,350.796z"/>
						<path style="fill:#D8D8D8;" d="M290.335,350.796c0,1.709-1.793,3.095-4.004,3.095c-2.212,0-4.004-1.386-4.004-3.095
							c0-1.709,1.793-3.095,4.004-3.095C288.542,347.701,290.335,349.086,290.335,350.796z"/>
						<g>
							
								<line style="fill:none;stroke:#919191;stroke-linecap:round;stroke-linejoin:round;stroke-miterlimit:10;" x1="284.063" y1="350.796" x2="289.092" y2="350.796"/>
							
								<line style="fill:none;stroke:#919191;stroke-linecap:round;stroke-linejoin:round;stroke-miterlimit:10;" x1="286.331" y1="348.832" x2="286.331" y2="353.08"/>
						</g>
					</g>
				</g>
				<g>
					<ellipse style="fill:#D8D8D8;" cx="232.194" cy="262.557" rx="110.502" ry="85.407"/>
					<ellipse style="fill:#FAFDF8;" cx="232.194" cy="262.557" rx="105.113" ry="81.242"/>
					<g>
						<ellipse style="fill:#919191;" cx="232.194" cy="262.557" rx="38.313" ry="29.612"/>
						<ellipse style="fill:#D8D8D8;" cx="231.381" cy="257.422" rx="38.313" ry="29.612"/>
						<ellipse style="fill:#FAFDF8;" cx="231.381" cy="256.471" rx="30.054" ry="23.229"/>
						<ellipse style="fill:#D8D8D8;" cx="231.381" cy="256.471" rx="16.404" ry="12.678"/>
						<ellipse style="fill:#919191;" cx="231.381" cy="256.471" rx="5.939" ry="4.59"/>
						<path style="fill:#FAFDF8;" d="M234.623,256.471c0,1.384-1.451,2.505-3.242,2.505c-1.79,0-3.242-1.122-3.242-2.505
							c0-1.384,1.451-2.505,3.242-2.505C233.172,253.965,234.623,255.087,234.623,256.471z"/>
						<g>
							<path style="fill:#D8D8D8;" d="M246.946,241.287c0,1.384-1.451,2.505-3.242,2.505c-1.79,0-3.242-1.122-3.242-2.505
								c0-1.384,1.451-2.506,3.242-2.506C245.495,238.781,246.946,239.903,246.946,241.287z"/>
							<ellipse style="fill:#D8D8D8;" cx="214.978" cy="243.792" rx="3.242" ry="2.506"/>
							<ellipse style="fill:#D8D8D8;" cx="210.183" cy="263.567" rx="3.242" ry="2.506"/>
							<path style="fill:#D8D8D8;" d="M231.925,238.781c0,1.384-1.451,2.506-3.242,2.506c-1.79,0-3.242-1.122-3.242-2.506
								c0-1.384,1.451-2.505,3.242-2.505C230.474,236.276,231.925,237.398,231.925,238.781z"/>
							<path style="fill:#D8D8D8;" d="M211.736,253.118c0,1.384-1.451,2.505-3.242,2.505c-1.79,0-3.242-1.122-3.242-2.505
								c0-1.384,1.451-2.506,3.242-2.506C210.285,250.612,211.736,251.734,211.736,253.118z"/>
							<ellipse style="fill:#D8D8D8;" cx="218.219" cy="271.655" rx="3.242" ry="2.506"/>
							<path style="fill:#D8D8D8;" d="M256.867,261.061c0,1.384-1.451,2.505-3.242,2.505c-1.79,0-3.242-1.122-3.242-2.505
								c0-1.384,1.451-2.506,3.242-2.506C255.415,258.556,256.867,259.677,256.867,261.061z"/>
							<path style="fill:#D8D8D8;" d="M234.623,275.168c0,1.384-1.451,2.505-3.242,2.505c-1.79,0-3.242-1.122-3.242-2.505
								c0-1.384,1.451-2.505,3.242-2.505C233.172,272.663,234.623,273.784,234.623,275.168z"/>
							<path style="fill:#D8D8D8;" d="M249.132,270.157c0,1.384-1.451,2.505-3.242,2.505c-1.79,0-3.242-1.122-3.242-2.505
								c0-1.384,1.451-2.506,3.242-2.506C247.68,267.651,249.132,268.773,249.132,270.157z"/>
							<ellipse style="fill:#D8D8D8;" cx="252.373" cy="249.058" rx="3.242" ry="2.506"/>
						</g>
					</g>
				</g>
			</g>
			<g>
				<g>
					<path style="fill:#919191;" d="M329.703,151.721l-118.751,50.724l134.883-18.2
						C345.834,184.244,365.687,161.769,329.703,151.721z"/>
					<g style="opacity:0.5;">
						<path style="fill:#919191;" d="M329.703,151.721l-106.141,45.337c0.162,0.606,0.335,1.209,0.524,1.807
							c-3.945,1.191-7.94,2.213-11.969,3.081l-1.166,0.498l134.882-18.2C345.834,184.244,365.687,161.769,329.703,151.721z"/>
					</g>
					<path style="fill:#D8D8D8;" d="M333.101,152.431l-104.555,43.279c-3.346,1.385-2.18,6.388,1.433,6.151l116.559-7.636
						C346.538,194.225,368.15,168.463,333.101,152.431z"/>
					<path style="opacity:0.5;fill:#919191;" d="M333.101,152.431l-104.555,43.279c-3.346,1.385-2.18,6.388,1.433,6.151
						l116.559-7.636C346.538,194.225,368.15,168.463,333.101,152.431z"/>
					<path style="fill:#D8D8D8;" d="M331.534,150.237l-104.556,43.278c-3.346,1.385-2.18,6.388,1.433,6.151l116.559-7.635
						C344.97,192.031,366.582,166.27,331.534,150.237z"/>
					<g>
						<ellipse style="fill:#919191;" cx="314.109" cy="174.697" rx="17.805" ry="13.761"/>
						<g>
							<ellipse style="fill:#919191;" cx="314.487" cy="177.083" rx="17.805" ry="13.761"/>
							<ellipse style="opacity:0.5;fill:#FFFFFF;" cx="314.109" cy="174.697" rx="17.805" ry="13.761"/>
							<ellipse style="fill:#FAFDF8;" cx="314.109" cy="174.254" rx="13.967" ry="10.795"/>
							<ellipse style="fill:#919191;" cx="314.109" cy="174.254" rx="7.623" ry="5.892"/>
							<path style="opacity:0.5;fill:#FFFFFF;" d="M318.27,174.254c0,1.776-1.863,3.216-4.161,3.216
								c-2.298,0-4.161-1.44-4.161-3.216s1.863-3.216,4.161-3.216C316.407,171.039,318.27,172.478,318.27,174.254z"/>
						</g>
					</g>
					<g>
						<path style="opacity:0.5;fill:#D8D8D8;" d="M293.111,182.98c0.308,1.684-6.233,4.292-14.609,5.824
							c-8.377,1.532-15.417,1.409-15.725-0.275c-0.308-1.684,6.233-4.292,14.609-5.824
							C285.762,181.172,292.803,181.295,293.111,182.98z"/>
						<g style="opacity:0.5;">
							<path style="opacity:0.5;fill:#919191;" d="M278.501,188.804c6.475-1.184,11.838-3.01,13.804-4.557
								c-2.386-0.75-8.048-0.56-14.523,0.625c-6.476,1.184-11.838,3.01-13.804,4.557
								C266.364,190.179,272.026,189.988,278.501,188.804z"/>
							<path style="opacity:0.5;fill:#919191;" d="M278.501,188.804c6.475-1.184,11.838-3.01,13.804-4.557
								c-2.386-0.75-8.048-0.56-14.523,0.625c-6.476,1.184-11.838,3.01-13.804,4.557
								C266.364,190.179,272.026,189.988,278.501,188.804z"/>
						</g>
					</g>
					<g>
						<path style="opacity:0.5;fill:#D8D8D8;" d="M260.659,189.91c0.196,1.073-3.969,2.733-9.303,3.709
							c-5.334,0.976-9.818,0.897-10.014-0.175c-0.196-1.073,3.969-2.733,9.303-3.709C255.98,188.758,260.463,188.837,260.659,189.91
							z"/>
						<g style="opacity:0.5;">
							<path style="opacity:0.5;fill:#919191;" d="M251.356,193.618c4.123-0.754,7.538-1.917,8.79-2.902
								c-1.519-0.478-5.125-0.356-9.248,0.398c-4.124,0.754-7.539,1.917-8.79,2.902
								C243.627,194.494,247.232,194.373,251.356,193.618z"/>
							<path style="opacity:0.5;fill:#919191;" d="M251.356,193.618c4.123-0.754,7.538-1.917,8.79-2.902
								c-1.519-0.478-5.125-0.356-9.248,0.398c-4.124,0.754-7.539,1.917-8.79,2.902
								C243.627,194.494,247.232,194.373,251.356,193.618z"/>
						</g>
					</g>
					<g>
						<path style="opacity:0.5;fill:#D8D8D8;" d="M239.759,194.169c0.172,0.671-2.396,1.908-5.735,2.762
							c-3.339,0.854-6.185,1.001-6.357,0.33c-0.172-0.671,2.396-1.908,5.736-2.761C236.741,193.645,239.587,193.497,239.759,194.169
							z"/>
						<g style="opacity:0.5;">
							<path style="opacity:0.5;fill:#919191;" d="M234.024,196.93c2.581-0.66,4.695-1.548,5.446-2.227
								c-0.984-0.236-3.265,0-5.846,0.66c-2.581,0.66-4.696,1.548-5.446,2.227C229.162,197.826,231.442,197.59,234.024,196.93z"/>
							<path style="opacity:0.5;fill:#919191;" d="M234.024,196.93c2.581-0.66,4.695-1.548,5.446-2.227
								c-0.984-0.236-3.265,0-5.846,0.66c-2.581,0.66-4.696,1.548-5.446,2.227C229.162,197.826,231.442,197.59,234.024,196.93z"/>
						</g>
					</g>
				</g>
				<g>
					<g>
						<path style="fill:#D1945D;" d="M344.52,194.302c0.103-7.213-1.29-14.552-4.829-20.838
							c-3.538-6.286-9.352-11.435-16.296-13.387c-5.221-1.468-11.754-1.687-14.385-6.43c-0.785-1.415-1.076-3.066-1.884-4.468
							c-0.889-1.543-2.349-2.691-3.258-4.223c-1.884-3.177-0.72-7.779,2.448-9.678c8.807,4.141,17.657,8.833,25.218,14.96
							c7.56,6.128,13.762,14.473,15.36,24.073C347.923,180.491,345.66,188.14,344.52,194.302z"/>
						<path style="opacity:0.5;fill:#D1945D;" d="M344.52,194.302c0.103-7.213-1.29-14.552-4.829-20.838
							c-3.538-6.286-9.352-11.435-16.296-13.387c-5.221-1.468-11.754-1.687-14.385-6.43c-0.785-1.415-1.076-3.066-1.884-4.468
							c-0.889-1.543-2.349-2.691-3.258-4.223c-1.884-3.177-0.72-7.779,2.448-9.678c8.807,4.141,17.657,8.833,25.218,14.96
							c7.56,6.128,13.762,14.473,15.36,24.073C347.923,180.491,345.66,188.14,344.52,194.302z"/>
					</g>
					<path style="fill:#D1945D;" d="M371.946,232.139c0.234,0.102,0.468-0.138,0.61-0.35c2.996-4.458,5.296-9.366,8.467-13.701
						c1.377-1.883,2.919-3.656,4.084-5.678c1.165-2.021,1.944-4.367,1.615-6.676c-0.329-2.31-1.91-5.149-4.192-5.635
						c3.883-7.873,7.802-15.805,13.159-22.76c5.957-7.733,16.483-12.397,22.01-20.396c2.8-4.052,1.712-9.786-2.514-12.316
						c-3.577-2.142-7.974-2.184-12.129-1.988c-6.842,0.324-13.694,1.139-20.521,0.584c-11.365-0.925-22.038-5.582-32.572-9.947
						c-6.856-2.842-13.752-5.586-20.686-8.231c-4.805-1.833-9.953-3.232-15.067-2.681c-3.25,4.266-5.948,9.07-8.869,13.637
						c-1.025,1.603-0.458,3.659,1.134,4.701c1.279,0.837,2.223,2.228,3.082,3.986c0.709,1.451,1.032,3.118,2.057,4.366
						c1.503,1.831,4.061,2.313,6.387,2.76c20.604,3.957,26.041,17.339,26.056,24.979c0.011,5.93-3.901,11.735-9.582,13.678
						c-1.586,0.542-2.838,1.876-3.204,3.512c-0.722,3.234,2.589,4.644,5.287,5.365c3.114,0.832,6.229,1.665,9.343,2.497
						c2.498,0.668,5.19,1.463,6.725,3.543c1.822,2.469,1.395,5.941,0.341,8.823c-1.018,2.782-2.549,5.431-2.959,8.354
						c-0.166,1.181,0.431,2.341,1.472,2.924C358.203,229.258,371.711,232.036,371.946,232.139z"/>
					<g>
						<path style="fill:#919191;" d="M415.678,153.167c0,2.794-2.931,5.059-6.546,5.059c-3.615,0-6.545-2.265-6.545-5.059
							c0-8.028,2.93-5.059,6.545-5.059C412.747,148.107,415.678,145.013,415.678,153.167z"/>
						<path style="opacity:0.5;fill:#919191;" d="M415.678,151.477c0,2.794-2.931,5.059-6.546,5.059
							c-3.615,0-6.545-2.265-6.545-5.059c0-2.794,2.93-5.059,6.545-5.059C412.747,146.418,415.678,148.683,415.678,151.477z"/>
						<path style="fill:#919191;" d="M415.678,150.072c0,2.794-2.931,5.059-6.546,5.059c-3.615,0-6.545-2.265-6.545-5.059
							c0-2.794,2.93-5.059,6.545-5.059C412.747,145.013,415.678,147.278,415.678,150.072z"/>
						<path style="fill:#D8D8D8;" d="M413.137,150.072c0,1.709-1.793,3.095-4.004,3.095c-2.212,0-4.004-1.386-4.004-3.095
							c0-1.709,1.793-3.095,4.004-3.095C411.344,146.977,413.137,148.362,413.137,150.072z"/>
						<g>
							
								<line style="fill:none;stroke:#919191;stroke-linecap:round;stroke-linejoin:round;stroke-miterlimit:10;" x1="406.865" y1="150.072" x2="411.894" y2="150.072"/>
							
								<line style="fill:none;stroke:#919191;stroke-linecap:round;stroke-linejoin:round;stroke-miterlimit:10;" x1="409.132" y1="148.107" x2="409.132" y2="152.355"/>
						</g>
					</g>
					<g>
						<path style="fill:#919191;" d="M328.464,132.796c0,2.794-2.93,5.059-6.545,5.059c-3.615,0-6.546-2.265-6.546-5.059
							c0-8.028,2.93-5.059,6.546-5.059C325.534,127.737,328.464,124.642,328.464,132.796z"/>
						<path style="opacity:0.5;fill:#919191;" d="M328.464,131.107c0,2.794-2.93,5.059-6.545,5.059
							c-3.615,0-6.546-2.265-6.546-5.059c0-2.794,2.93-5.059,6.546-5.059C325.534,126.048,328.464,128.313,328.464,131.107z"/>
						<path style="fill:#919191;" d="M328.464,129.701c0,2.794-2.93,5.059-6.545,5.059c-3.615,0-6.546-2.265-6.546-5.059
							c0-2.794,2.93-5.059,6.546-5.059C325.534,124.642,328.464,126.907,328.464,129.701z"/>
						<path style="fill:#D8D8D8;" d="M325.923,129.701c0,1.709-1.793,3.095-4.004,3.095c-2.212,0-4.004-1.386-4.004-3.095
							c0-1.709,1.793-3.095,4.004-3.095C324.13,126.606,325.923,127.992,325.923,129.701z"/>
						<g>
							
								<line style="fill:none;stroke:#919191;stroke-linecap:round;stroke-linejoin:round;stroke-miterlimit:10;" x1="319.651" y1="129.701" x2="324.68" y2="129.701"/>
							
								<line style="fill:none;stroke:#919191;stroke-linecap:round;stroke-linejoin:round;stroke-miterlimit:10;" x1="321.919" y1="127.737" x2="321.919" y2="131.985"/>
						</g>
					</g>
					<g>
						<path style="fill:#919191;" d="M380.341,210.929c0,2.794-2.93,5.059-6.545,5.059c-3.615,0-6.545-2.265-6.545-5.059
							c0-8.028,2.93-5.059,6.545-5.059C377.41,205.87,380.341,202.775,380.341,210.929z"/>
						<path style="opacity:0.5;fill:#919191;" d="M380.341,209.24c0,2.794-2.93,5.059-6.545,5.059c-3.615,0-6.545-2.265-6.545-5.059
							c0-2.794,2.93-5.059,6.545-5.059C377.41,204.181,380.341,206.446,380.341,209.24z"/>
						<path style="fill:#919191;" d="M380.341,207.834c0,2.794-2.93,5.059-6.545,5.059c-3.615,0-6.545-2.265-6.545-5.059
							c0-2.794,2.93-5.059,6.545-5.059C377.41,202.775,380.341,205.04,380.341,207.834z"/>
						<path style="fill:#D8D8D8;" d="M377.799,207.834c0,1.709-1.793,3.095-4.004,3.095c-2.212,0-4.004-1.386-4.004-3.095
							c0-1.709,1.793-3.095,4.004-3.095C376.007,204.74,377.799,206.125,377.799,207.834z"/>
						<g>
							
								<line style="fill:none;stroke:#919191;stroke-linecap:round;stroke-linejoin:round;stroke-miterlimit:10;" x1="371.527" y1="207.834" x2="376.556" y2="207.834"/>
							
								<line style="fill:none;stroke:#919191;stroke-linecap:round;stroke-linejoin:round;stroke-miterlimit:10;" x1="373.795" y1="205.87" x2="373.795" y2="210.118"/>
						</g>
					</g>
					<g>
						<path style="fill:#919191;" d="M345.883,194.391c0,1.882-1.974,3.408-4.409,3.408c-2.435,0-4.409-1.526-4.409-3.408
							c0-5.408,1.974-3.408,4.409-3.408C343.909,190.984,345.883,188.899,345.883,194.391z"/>
						<path style="opacity:0.5;fill:#919191;" d="M345.883,193.253c0,1.882-1.974,3.408-4.409,3.408
							c-2.435,0-4.409-1.526-4.409-3.408c0-1.882,1.974-3.408,4.409-3.408C343.909,189.846,345.883,191.372,345.883,193.253z"/>
						<path style="fill:#919191;" d="M345.883,192.307c0,1.882-1.974,3.408-4.409,3.408c-2.435,0-4.409-1.526-4.409-3.408
							c0-1.882,1.974-3.408,4.409-3.408C343.909,188.899,345.883,190.424,345.883,192.307z"/>
						<path style="fill:#D8D8D8;" d="M344.172,192.307c0,1.151-1.208,2.085-2.697,2.085c-1.49,0-2.697-0.933-2.697-2.085
							s1.208-2.085,2.697-2.085C342.964,190.222,344.172,191.155,344.172,192.307z"/>
						<g>
							
								<line style="fill:none;stroke:#919191;stroke-linecap:round;stroke-linejoin:round;stroke-miterlimit:10;" x1="339.947" y1="192.307" x2="343.334" y2="192.307"/>
							
								<line style="fill:none;stroke:#919191;stroke-linecap:round;stroke-linejoin:round;stroke-miterlimit:10;" x1="341.474" y1="190.984" x2="341.474" y2="193.845"/>
						</g>
					</g>
					<g>
						<path style="opacity:0.5;fill:#D1945D;" d="M321.672,146.639c0,1.477-1.55,2.675-3.461,2.675
							c-1.911,0-3.461-1.198-3.461-2.675c0-1.477,1.55-2.675,3.461-2.675C320.123,143.964,321.672,145.161,321.672,146.639z"/>
						<g>
							<path style="opacity:0.5;fill:#D1945D;" d="M318.211,149.314c1.3,0,2.419-0.56,3.01-1.38
								c-0.607-0.773-1.696-1.296-2.952-1.296c-1.3,0-2.419,0.56-3.01,1.379C315.866,148.792,316.955,149.314,318.211,149.314z"/>
						</g>
					</g>
					<g>
						<ellipse style="opacity:0.5;fill:#D1945D;" cx="349.343" cy="147.531" rx="3.461" ry="2.675"/>
						<g>
							<path style="opacity:0.5;fill:#D1945D;" d="M349.343,150.206c1.3,0,2.419-0.561,3.011-1.38
								c-0.607-0.773-1.696-1.296-2.952-1.296c-1.3,0-2.419,0.56-3.01,1.379C346.999,149.684,348.088,150.206,349.343,150.206z"/>
						</g>
					</g>
					<g>
						<path style="opacity:0.5;fill:#D1945D;" d="M374.988,164.789c0,1.477-1.549,2.675-3.461,2.675s-3.461-1.198-3.461-2.675
							s1.549-2.675,3.461-2.675S374.988,163.312,374.988,164.789z"/>
						<g>
							<path style="opacity:0.5;fill:#D1945D;" d="M371.527,167.464c1.3,0,2.419-0.56,3.01-1.379
								c-0.607-0.774-1.696-1.296-2.952-1.296c-1.3,0-2.419,0.56-3.01,1.38C369.182,166.942,370.272,167.464,371.527,167.464z"/>
						</g>
					</g>
					<g>
						<path style="opacity:0.5;fill:#D1945D;" d="M368.361,194.302c0,1.477-1.55,2.675-3.461,2.675
							c-1.911,0-3.461-1.198-3.461-2.675c0-1.477,1.55-2.675,3.461-2.675C366.812,191.627,368.361,192.824,368.361,194.302z"/>
						<g>
							<path style="opacity:0.5;fill:#D1945D;" d="M364.9,196.977c1.3,0,2.419-0.56,3.01-1.379
								c-0.607-0.773-1.696-1.296-2.951-1.296c-1.3,0-2.419,0.561-3.01,1.38C362.555,196.455,363.645,196.977,364.9,196.977z"/>
						</g>
					</g>
				</g>
			</g>
		</g>
	</g>
	<g>
		<g>
			<g>
				<path style="fill:#FFFFFF;" d="M153.462,103.32h-2.95c-0.313,0-0.566-0.254-0.566-0.566c0-0.313,0.254-0.566,0.566-0.566h2.95
					c0.313,0,0.566,0.254,0.566,0.566C154.028,103.066,153.775,103.32,153.462,103.32z"/>
			</g>
			<g>
				<path style="fill:#FFFFFF;" d="M147.299,103.32h-2.949c-0.313,0-0.566-0.254-0.566-0.566c0-0.313,0.254-0.566,0.566-0.566h2.949
					c0.313,0,0.566,0.254,0.566,0.566C147.866,103.066,147.612,103.32,147.299,103.32z"/>
			</g>
			<g>
				<path style="fill:#FFFFFF;" d="M148.906,107.876c-0.313,0-0.566-0.254-0.566-0.566v-2.95c0-0.313,0.254-0.566,0.566-0.566
					c0.313,0,0.566,0.254,0.566,0.566v2.95C149.472,107.622,149.219,107.876,148.906,107.876z"/>
			</g>
			<g>
				<path style="fill:#FFFFFF;" d="M148.906,101.713c-0.313,0-0.566-0.254-0.566-0.566v-2.949c0-0.313,0.254-0.566,0.566-0.566
					c0.313,0,0.566,0.254,0.566,0.566v2.949C149.472,101.459,149.219,101.713,148.906,101.713z"/>
			</g>
		</g>
		<g>
			<g>
				<path style="fill:#FFFFFF;" d="M58.974,57.178h-2.95c-0.313,0-0.566-0.254-0.566-0.566c0-0.313,0.254-0.566,0.566-0.566h2.95
					c0.313,0,0.566,0.254,0.566,0.566C59.541,56.925,59.287,57.178,58.974,57.178z"/>
			</g>
			<g>
				<path style="fill:#FFFFFF;" d="M52.812,57.178h-2.949c-0.313,0-0.566-0.254-0.566-0.566c0-0.313,0.254-0.566,0.566-0.566h2.949
					c0.313,0,0.566,0.254,0.566,0.566C53.378,56.925,53.124,57.178,52.812,57.178z"/>
			</g>
			<g>
				<path style="fill:#FFFFFF;" d="M54.418,61.734c-0.313,0-0.566-0.254-0.566-0.566v-2.95c0-0.313,0.254-0.566,0.566-0.566
					c0.313,0,0.566,0.254,0.566,0.566v2.95C54.985,61.481,54.731,61.734,54.418,61.734z"/>
			</g>
			<g>
				<path style="fill:#FFFFFF;" d="M54.418,55.571c-0.313,0-0.566-0.254-0.566-0.566v-2.949c0-0.313,0.254-0.566,0.566-0.566
					c0.313,0,0.566,0.254,0.566,0.566v2.949C54.985,55.318,54.731,55.571,54.418,55.571z"/>
			</g>
		</g>
		<g>
			<g>
				<path style="fill:#FFFFFF;" d="M464.306,261.628h-2.95c-0.313,0-0.566-0.254-0.566-0.566c0-0.313,0.254-0.566,0.566-0.566h2.95
					c0.313,0,0.566,0.254,0.566,0.566C464.873,261.374,464.619,261.628,464.306,261.628z"/>
			</g>
			<g>
				<path style="fill:#FFFFFF;" d="M458.144,261.628h-2.949c-0.313,0-0.566-0.254-0.566-0.566c0-0.313,0.254-0.566,0.566-0.566
					h2.949c0.313,0,0.566,0.254,0.566,0.566C458.71,261.374,458.456,261.628,458.144,261.628z"/>
			</g>
			<g>
				<path style="fill:#FFFFFF;" d="M459.75,266.184c-0.313,0-0.566-0.254-0.566-0.566v-2.95c0-0.313,0.254-0.566,0.566-0.566
					c0.313,0,0.566,0.254,0.566,0.566v2.95C460.317,265.93,460.063,266.184,459.75,266.184z"/>
			</g>
			<g>
				<path style="fill:#FFFFFF;" d="M459.75,260.021c-0.313,0-0.566-0.254-0.566-0.566v-2.949c0-0.313,0.254-0.566,0.566-0.566
					c0.313,0,0.566,0.254,0.566,0.566v2.949C460.317,259.767,460.063,260.021,459.75,260.021z"/>
			</g>
		</g>
		<g>
			<g>
				<path style="fill:#FFFFFF;" d="M265.991,32.195h-2.95c-0.313,0-0.566-0.254-0.566-0.566c0-0.313,0.254-0.566,0.566-0.566h2.95
					c0.313,0,0.566,0.254,0.566,0.566C266.558,31.941,266.304,32.195,265.991,32.195z"/>
			</g>
			<g>
				<path style="fill:#FFFFFF;" d="M259.829,32.195h-2.949c-0.313,0-0.566-0.254-0.566-0.566c0-0.313,0.254-0.566,0.566-0.566h2.949
					c0.313,0,0.566,0.254,0.566,0.566C260.395,31.941,260.141,32.195,259.829,32.195z"/>
			</g>
			<g>
				<path style="fill:#FFFFFF;" d="M261.435,36.751c-0.313,0-0.566-0.254-0.566-0.566v-2.95c0-0.313,0.254-0.566,0.566-0.566
					c0.313,0,0.566,0.254,0.566,0.566v2.95C262.002,36.498,261.748,36.751,261.435,36.751z"/>
			</g>
			<g>
				<path style="fill:#FFFFFF;" d="M261.435,30.588c-0.313,0-0.566-0.254-0.566-0.566v-2.949c0-0.313,0.254-0.566,0.566-0.566
					c0.313,0,0.566,0.254,0.566,0.566v2.949C262.002,30.335,261.748,30.588,261.435,30.588z"/>
			</g>
		</g>
		<g>
			<g>
				<path style="fill:#FFFFFF;" d="M401.152,340.191h-2.95c-0.313,0-0.566-0.254-0.566-0.566c0-0.313,0.254-0.566,0.566-0.566h2.95
					c0.313,0,0.566,0.254,0.566,0.566C401.718,339.937,401.464,340.191,401.152,340.191z"/>
			</g>
			<g>
				<path style="fill:#FFFFFF;" d="M394.989,340.191h-2.949c-0.313,0-0.566-0.254-0.566-0.566c0-0.313,0.254-0.566,0.566-0.566
					h2.949c0.313,0,0.566,0.254,0.566,0.566C395.555,339.937,395.301,340.191,394.989,340.191z"/>
			</g>
			<g>
				<path style="fill:#FFFFFF;" d="M396.596,344.747c-0.313,0-0.566-0.254-0.566-0.566v-2.95c0-0.313,0.254-0.566,0.566-0.566
					c0.313,0,0.566,0.254,0.566,0.566v2.95C397.162,344.493,396.908,344.747,396.596,344.747z"/>
			</g>
			<g>
				<path style="fill:#FFFFFF;" d="M396.596,338.584c-0.313,0-0.566-0.254-0.566-0.566v-2.949c0-0.313,0.254-0.566,0.566-0.566
					c0.313,0,0.566,0.254,0.566,0.566v2.949C397.162,338.33,396.908,338.584,396.596,338.584z"/>
			</g>
		</g>
		<g>
			<g>
				<path style="fill:#FFFFFF;" d="M53.852,231.22h-2.95c-0.313,0-0.566-0.254-0.566-0.566c0-0.313,0.254-0.566,0.566-0.566h2.95
					c0.313,0,0.566,0.254,0.566,0.566C54.418,230.967,54.165,231.22,53.852,231.22z"/>
			</g>
			<g>
				<path style="fill:#FFFFFF;" d="M47.689,231.22H44.74c-0.313,0-0.566-0.254-0.566-0.566c0-0.313,0.254-0.566,0.566-0.566h2.949
					c0.313,0,0.566,0.254,0.566,0.566C48.255,230.967,48.002,231.22,47.689,231.22z"/>
			</g>
			<g>
				<path style="fill:#FFFFFF;" d="M49.296,235.777c-0.313,0-0.566-0.254-0.566-0.566v-2.95c0-0.313,0.254-0.566,0.566-0.566
					c0.313,0,0.566,0.254,0.566,0.566v2.95C49.862,235.523,49.609,235.777,49.296,235.777z"/>
			</g>
			<g>
				<path style="fill:#FFFFFF;" d="M49.296,229.614c-0.313,0-0.566-0.254-0.566-0.566v-2.949c0-0.313,0.254-0.566,0.566-0.566
					c0.313,0,0.566,0.254,0.566,0.566v2.949C49.862,229.36,49.609,229.614,49.296,229.614z"/>
			</g>
		</g>
		<g>
			<g>
				<path style="fill:#FFFFFF;" d="M163.179,459.553h-2.95c-0.313,0-0.566-0.254-0.566-0.566c0-0.313,0.254-0.566,0.566-0.566h2.95
					c0.313,0,0.566,0.254,0.566,0.566C163.745,459.299,163.492,459.553,163.179,459.553z"/>
			</g>
			<g>
				<path style="fill:#FFFFFF;" d="M157.016,459.553h-2.949c-0.313,0-0.566-0.254-0.566-0.566c0-0.313,0.254-0.566,0.566-0.566
					h2.949c0.313,0,0.566,0.254,0.566,0.566C157.583,459.299,157.329,459.553,157.016,459.553z"/>
			</g>
			<g>
				<path style="fill:#FFFFFF;" d="M158.623,464.109c-0.313,0-0.566-0.254-0.566-0.566v-2.95c0-0.313,0.254-0.566,0.566-0.566
					c0.313,0,0.566,0.254,0.566,0.566v2.95C159.189,463.855,158.936,464.109,158.623,464.109z"/>
			</g>
			<g>
				<path style="fill:#FFFFFF;" d="M158.623,457.946c-0.313,0-0.566-0.254-0.566-0.566v-2.949c0-0.313,0.254-0.566,0.566-0.566
					c0.313,0,0.566,0.254,0.566,0.566v2.949C159.189,457.692,158.936,457.946,158.623,457.946z"/>
			</g>
		</g>
		<g>
			<path style="fill:#FFFFFF;" d="M90.472,141.093c-2.157,0-3.911-1.755-3.911-3.911c0-2.157,1.755-3.911,3.911-3.911
				c2.157,0,3.912,1.755,3.912,3.911C94.384,139.338,92.629,141.093,90.472,141.093z M90.472,134.26
				c-1.611,0-2.922,1.311-2.922,2.922c0,1.611,1.311,2.922,2.922,2.922c1.611,0,2.922-1.311,2.922-2.922
				C93.395,135.57,92.084,134.26,90.472,134.26z"/>
		</g>
		<g>
			<path style="fill:#FFFFFF;" d="M371.527,40.663c-2.157,0-3.911-1.755-3.911-3.911c0-2.157,1.755-3.911,3.911-3.911
				c2.157,0,3.911,1.755,3.911,3.911C375.439,38.908,373.684,40.663,371.527,40.663z M371.527,33.829
				c-1.611,0-2.922,1.311-2.922,2.922c0,1.611,1.311,2.922,2.922,2.922c1.611,0,2.922-1.311,2.922-2.922
				C374.449,35.14,373.138,33.829,371.527,33.829z"/>
		</g>
		<g>
			<path style="fill:#FFFFFF;" d="M76.626,450.261c-2.157,0-3.911-1.755-3.911-3.911c0-2.157,1.755-3.912,3.911-3.912
				c2.157,0,3.911,1.755,3.911,3.912C80.538,448.507,78.783,450.261,76.626,450.261z M76.626,443.428
				c-1.611,0-2.922,1.311-2.922,2.922c0,1.611,1.311,2.922,2.922,2.922c1.611,0,2.922-1.311,2.922-2.922
				C79.548,444.739,78.237,443.428,76.626,443.428z"/>
		</g>
		<g>
			<path style="fill:#FFFFFF;" d="M349.373,453.183c-2.156,0-3.911-1.755-3.911-3.911c0-2.157,1.755-3.912,3.911-3.912
				c2.157,0,3.912,1.755,3.912,3.912C353.284,451.429,351.53,453.183,349.373,453.183z M349.373,446.35
				c-1.611,0-2.922,1.311-2.922,2.922c0,1.611,1.311,2.922,2.922,2.922c1.611,0,2.922-1.311,2.922-2.922
				C352.295,447.661,350.984,446.35,349.373,446.35z"/>
		</g>
		<g>
			<path style="fill:#FFFFFF;" d="M462.831,408.485c-2.157,0-3.911-1.755-3.911-3.911c0-2.157,1.755-3.911,3.911-3.911
				c2.157,0,3.912,1.755,3.912,3.911C466.743,406.73,464.988,408.485,462.831,408.485z M462.831,401.651
				c-1.611,0-2.922,1.311-2.922,2.922c0,1.611,1.311,2.922,2.922,2.922c1.611,0,2.922-1.311,2.922-2.922
				C465.754,402.962,464.443,401.651,462.831,401.651z"/>
		</g>
		<g>
			<path style="fill:#FFFFFF;" d="M468.784,159.042c-2.157,0-3.911-1.755-3.911-3.911c0-2.157,1.755-3.912,3.911-3.912
				c2.157,0,3.912,1.755,3.912,3.912C472.696,157.287,470.941,159.042,468.784,159.042z M468.784,152.208
				c-1.611,0-2.922,1.311-2.922,2.922c0,1.611,1.311,2.922,2.922,2.922c1.611,0,2.922-1.311,2.922-2.922
				C471.706,153.519,470.395,152.208,468.784,152.208z"/>
		</g>
		<path style="fill:#FFFFFF;" d="M87.764,49.639c0,0.665-0.539,1.203-1.203,1.203s-1.203-0.539-1.203-1.203
			c0-0.664,0.539-1.203,1.203-1.203S87.764,48.975,87.764,49.639z"/>
		<path style="fill:#FFFFFF;" d="M34.664,343.799c0,0.665-0.539,1.203-1.203,1.203s-1.203-0.539-1.203-1.203
			c0-0.665,0.539-1.203,1.203-1.203S34.664,343.135,34.664,343.799z"/>
		<circle style="fill:#FFFFFF;" cx="260.146" cy="466.841" r="1.203"/>
		<path style="fill:#FFFFFF;" d="M175.615,418.907c0,0.664-0.539,1.203-1.203,1.203s-1.203-0.539-1.203-1.203
			c0-0.665,0.539-1.203,1.203-1.203S175.615,418.242,175.615,418.907z"/>
		<path style="fill:#FFFFFF;" d="M37.071,458.987c0,0.664-0.539,1.203-1.203,1.203c-0.664,0-1.203-0.539-1.203-1.203
			c0-0.665,0.539-1.203,1.203-1.203C36.532,457.783,37.071,458.322,37.071,458.987z"/>
		<path style="fill:#FFFFFF;" d="M108.896,198.804c0,0.665-0.539,1.203-1.203,1.203c-0.665,0-1.203-0.539-1.203-1.203
			c0-0.665,0.539-1.203,1.203-1.203C108.358,197.601,108.896,198.139,108.896,198.804z"/>
		<path style="fill:#FFFFFF;" d="M95.953,403.37c0,0.665-0.539,1.203-1.203,1.203c-0.665,0-1.203-0.539-1.203-1.203
			c0-0.664,0.539-1.203,1.203-1.203C95.415,402.167,95.953,402.705,95.953,403.37z"/>
		<path style="fill:#FFFFFF;" d="M399.002,402.167c0,0.665-0.539,1.203-1.203,1.203c-0.665,0-1.203-0.539-1.203-1.203
			c0-0.665,0.539-1.203,1.203-1.203C398.464,400.963,399.002,401.502,399.002,402.167z"/>
		<path style="fill:#FFFFFF;" d="M457.872,311.338c0,0.665-0.539,1.203-1.203,1.203c-0.665,0-1.203-0.539-1.203-1.203
			c0-0.664,0.539-1.203,1.203-1.203C457.333,310.135,457.872,310.674,457.872,311.338z"/>
		<path style="fill:#FFFFFF;" d="M455.831,212.942c0,0.665-0.539,1.203-1.203,1.203c-0.665,0-1.203-0.539-1.203-1.203
			c0-0.665,0.539-1.203,1.203-1.203C455.293,211.739,455.831,212.277,455.831,212.942z"/>
		<path style="fill:#FFFFFF;" d="M443.69,458.987c0,0.664-0.539,1.203-1.203,1.203c-0.665,0-1.203-0.539-1.203-1.203
			c0-0.665,0.539-1.203,1.203-1.203C443.151,457.783,443.69,458.322,443.69,458.987z"/>
		<path style="fill:#FFFFFF;" d="M23.231,135.978c0,0.665-0.539,1.203-1.203,1.203c-0.664,0-1.203-0.539-1.203-1.203
			s0.539-1.203,1.203-1.203C22.692,134.775,23.231,135.314,23.231,135.978z"/>
		<path style="fill:#FFFFFF;" d="M414.34,84.16c0,0.665-0.539,1.203-1.203,1.203c-0.665,0-1.203-0.539-1.203-1.203
			c0-0.664,0.539-1.203,1.203-1.203C413.801,82.956,414.34,83.495,414.34,84.16z"/>
		<path style="fill:#FFFFFF;" d="M290.295,43.069c0,0.665-0.539,1.203-1.203,1.203c-0.664,0-1.203-0.539-1.203-1.203
			c0-0.665,0.539-1.203,1.203-1.203C289.757,41.866,290.295,42.405,290.295,43.069z"/>
		<path style="fill:#FFFFFF;" d="M478.147,41.866c0,0.664-0.539,1.203-1.203,1.203c-0.665,0-1.203-0.539-1.203-1.203
			c0-0.665,0.539-1.203,1.203-1.203C477.608,40.663,478.147,41.201,478.147,41.866z"/>
		<path style="fill:#FFFFFF;" d="M338.622,79.912c0,0.665-0.539,1.203-1.203,1.203c-0.665,0-1.203-0.539-1.203-1.203
			c0-0.665,0.539-1.203,1.203-1.203C338.083,78.709,338.622,79.247,338.622,79.912z"/>
		<path style="fill:#FFFFFF;" d="M179.525,56.612c0,0.665-0.539,1.203-1.203,1.203c-0.665,0-1.203-0.539-1.203-1.203
			s0.539-1.203,1.203-1.203C178.986,55.409,179.525,55.947,179.525,56.612z"/>
		<path style="fill:#FFFFFF;" d="M130.063,155.13c0,0.665-0.539,1.203-1.203,1.203c-0.664,0-1.203-0.539-1.203-1.203
			c0-0.664,0.539-1.203,1.203-1.203C129.524,153.927,130.063,154.466,130.063,155.13z"/>
	</g>
</g>
</svg>
